<?xml version="1.0" encoding="UTF-8" standalone="no"?>
<!DOCTYPE svg PUBLIC "-//W3C//DTD SVG 1.1//EN" "http://www.w3.org/Graphics/SVG/1.1/DTD/svg11.dtd">
<svg version="1.1" xmlns="http://www.w3.org/2000/svg" xmlns:xlink="http://www.w3.org/1999/xlink" preserveAspectRatio="xMidYMid meet" viewBox="13.363935918307105 11.108839084351125 213.31641763348097 33.78232183129777" width="213.32" height="33.78"><defs><path d="M57.95 13.86C59.75 12.76 62.15 11.86 63.25 11.86C64.65 11.86 64.05 12.56 61.25 14.16C52.75 18.96 51.15 31.26 58.05 38.76C62.45 43.46 68.55 44.66 73.15 41.66C77.55 38.76 79.75 34.16 79.75 27.96C79.75 21.96 76.75 17.26 70.95 13.96C65.45 10.96 66.25 10.16 72.65 12.36C90.35 18.16 85.25 44.96 66.55 44.86C64.15 44.86 60.75 44.06 58.95 43.16C47.75 37.66 47.15 20.46 57.95 13.86Z" id="a6k7zwy2vx"></path><path d="M104.45 34.96C101.35 31.56 98.25 29.06 97.75 29.36C96.45 30.16 96.45 36.36 97.65 40.66C98.55 43.66 98.45 43.86 95.95 43.86C95.77 43.86 94.87 43.86 93.25 43.86C93.55 36.84 93.71 32.94 93.75 32.16C94.05 25.66 93.95 18.66 93.65 16.66C93.15 13.96 93.45 12.86 94.45 12.46C97.35 11.26 97.65 11.96 97.05 18.26C96.75 22.16 96.85 24.86 97.55 25.26C98.45 25.86 108.25 16.56 110.05 13.26C110.85 11.76 113.75 11.26 113.75 12.66C113.75 13.06 111.05 16.06 107.75 19.36C104.45 22.66 101.75 25.86 101.75 26.46C101.75 27.06 105.55 31.26 110.15 35.66C117.55 42.76 119.05 44.86 116.85 44.86C116.55 44.86 114.95 44.06 113.25 43.06C111.65 41.96 107.65 38.36 104.45 34.96Z" id="d2DaOYuRqC"></path><path d="M127.75 23.46C127.75 12.66 127.85 11.86 129.65 11.86C131.45 11.86 131.55 12.66 131.45 23.16C131.25 36.46 132.35 39.96 137.45 42.36C140.35 43.76 141.45 43.86 143.95 42.76C149.35 40.56 150.25 37.86 150.25 24.16C150.25 13.76 150.45 11.86 151.75 12.06C153.05 12.36 153.15 14.36 152.95 24.36C152.55 37.56 151.15 41.46 146.25 43.66C142.75 45.26 136.85 45.06 133.65 43.36C129.05 40.86 127.75 36.36 127.75 23.46Z" id="a3GHwCPWy7"></path><path d="M162.75 41.66C162.75 39.76 162.75 39.76 165.35 41.76C168.75 44.46 171.15 44.46 173.75 41.66C177.25 37.86 176.35 34.86 169.75 28.56C163.75 22.76 162.55 20.06 164.35 15.36C165.85 11.46 176.25 9.66 178.35 12.96C179.55 14.96 177.65 15.26 174.75 13.56C171.95 11.86 171.65 11.86 169.25 13.46C164.95 16.26 165.85 19.66 172.75 26.16C178.15 31.16 178.75 32.16 178.75 35.76C178.75 38.96 178.15 40.16 175.65 42.26C172.75 44.76 167.55 45.66 164.05 44.16C163.35 43.96 162.75 42.76 162.75 41.66Z" id="a1odYLEKeD"></path><path d="M205.45 37.26C203.15 31.46 203.05 31.36 199.05 31.06C194.35 30.66 192.85 32.16 190.55 39.66C189.75 42.36 188.65 43.86 187.65 43.86C186.25 43.86 186.45 42.56 189.25 35.66C191.15 31.06 193.85 24.06 195.35 20.06C196.85 16.16 198.35 12.86 198.75 12.86C199.05 12.86 201.55 18.36 204.25 25.16C206.85 31.86 209.85 38.76 210.75 40.56C212.15 42.96 212.25 43.86 211.35 44.16C210.65 44.46 209.55 44.36 208.85 43.96C208.25 43.56 206.65 40.56 205.45 37.26ZM198.15 19.86C197.15 19.86 194.95 25.36 194.85 28.16C194.75 29.46 195.55 29.86 198.25 29.86C200.35 29.86 201.75 29.36 201.75 28.66C201.75 26.26 199.05 19.76 198.15 19.86Z" id="c28S8I5Fna"></path><path d="M15.55 12.06C17.45 11.76 17.55 12.16 17.05 17.86C16.65 22.46 16.85 24.26 17.75 24.86C18.85 25.56 18.85 25.96 17.85 27.26C16.85 28.46 16.65 31.06 16.95 36.36C17.45 43.46 17.35 43.86 15.35 43.86C13.25 43.86 13.25 43.46 13.45 28.16C13.65 13.26 13.75 12.36 15.55 12.06Z" id="anTOe8IRQ"></path><path d="M35.41 27.46C34.81 27.26 34.81 26.46 35.51 25.16C36.61 23.46 36.61 21.56 35.71 14.36C35.51 12.86 36.01 12.36 37.71 12.36C40.01 12.36 40.01 12.46 40.21 28.16C40.23 29.21 40.29 34.44 40.41 43.86C38.97 43.86 38.17 43.86 38.01 43.86C35.71 43.86 35.71 43.66 36.11 35.86C36.31 31.06 36.01 27.76 35.41 27.46Z" id="e1NznhL9SI"></path><path d="M224.75 12.06C226.75 11.76 226.75 12.16 226.65 27.76C226.55 43.56 226.55 43.86 224.45 43.86C222.25 43.86 222.25 43.66 222.45 28.16C222.65 13.06 222.75 12.36 224.75 12.06Z" id="d27AeT2fVI"></path><path d="M35.19 26.53C39.41 25.73 35.19 24.94 25.92 24.94C16.64 24.94 13.26 25.73 18.33 26.53C23.39 27.32 30.98 27.32 35.19 26.53Z" id="inD8GuAZl"></path><path d="M35.78 27.43C39.99 28.22 35.78 29.02 26.5 29.02C17.22 29.02 13.85 28.22 18.91 27.43C23.97 26.63 31.56 26.63 35.78 27.43Z" id="baeCFMicw"></path><path d="M38.73 26.62C40.96 27.42 38.73 28.21 33.83 28.21C28.92 28.21 27.14 27.42 29.81 26.62C32.49 25.83 36.5 25.83 38.73 26.62Z" id="a7366akCD"></path><path d="M28.98 27.43C32.22 28.22 28.98 29.02 21.86 29.02C14.75 29.02 12.16 28.22 16.04 27.43C19.92 26.63 25.75 26.63 28.98 27.43Z" id="a7L8UVvZn9"></path><path d="M24.87 26.34C26.7 27.13 24.87 27.93 20.86 27.93C16.85 27.93 15.39 27.13 17.57 26.34C19.76 25.54 23.05 25.54 24.87 26.34Z" id="c49jwzspGn"></path><path d="M38.67 27.43C41.9 28.22 38.67 29.02 31.55 29.02C24.43 29.02 21.85 28.22 25.73 27.43C29.61 26.63 35.43 26.63 38.67 27.43Z" id="b1IC420odk"></path><path d="M28.79 26.53C32.03 25.73 28.79 24.94 21.68 24.94C14.56 24.94 11.97 25.73 15.85 26.53C19.73 27.32 25.56 27.32 28.79 26.53Z" id="ddwPbmS8n"></path><path d="M38.67 26.53C41.9 25.73 38.67 24.94 31.55 24.94C24.43 24.94 21.85 25.73 25.73 26.53C29.61 27.32 35.43 27.32 38.67 26.53Z" id="aRTSy4hOl"></path></defs><g><g><g><use xlink:href="#a6k7zwy2vx" opacity="1" fill="#ffffff" fill-opacity="1"></use><g><use xlink:href="#a6k7zwy2vx" opacity="1" fill-opacity="0" stroke="#000000" stroke-width="1" stroke-opacity="0"></use></g></g><g><use xlink:href="#d2DaOYuRqC" opacity="1" fill="#ffffff" fill-opacity="1"></use><g><use xlink:href="#d2DaOYuRqC" opacity="1" fill-opacity="0" stroke="#000000" stroke-width="1" stroke-opacity="0"></use></g></g><g><use xlink:href="#a3GHwCPWy7" opacity="1" fill="#ffffff" fill-opacity="1"></use><g><use xlink:href="#a3GHwCPWy7" opacity="1" fill-opacity="0" stroke="#000000" stroke-width="1" stroke-opacity="0"></use></g></g><g><use xlink:href="#a1odYLEKeD" opacity="1" fill="#ffffff" fill-opacity="1"></use><g><use xlink:href="#a1odYLEKeD" opacity="1" fill-opacity="0" stroke="#000000" stroke-width="1" stroke-opacity="0"></use></g></g><g><use xlink:href="#c28S8I5Fna" opacity="1" fill="#ffffff" fill-opacity="1"></use><g><use xlink:href="#c28S8I5Fna" opacity="1" fill-opacity="0" stroke="#000000" stroke-width="1" stroke-opacity="0"></use></g></g><g><use xlink:href="#anTOe8IRQ" opacity="1" fill="#ffffff" fill-opacity="1"></use><g><use xlink:href="#anTOe8IRQ" opacity="1" fill-opacity="0" stroke="#000000" stroke-width="1" stroke-opacity="0"></use></g></g><g><use xlink:href="#e1NznhL9SI" opacity="1" fill="#ffffff" fill-opacity="1"></use><g><use xlink:href="#e1NznhL9SI" opacity="1" fill-opacity="0" stroke="#000000" stroke-width="1" stroke-opacity="0"></use></g></g><g><use xlink:href="#d27AeT2fVI" opacity="1" fill="#ffffff" fill-opacity="1"></use><g><use xlink:href="#d27AeT2fVI" opacity="1" fill-opacity="0" stroke="#000000" stroke-width="1" stroke-opacity="0"></use></g></g><g><use xlink:href="#inD8GuAZl" opacity="1" fill="#ffffff" fill-opacity="1"></use><g><use xlink:href="#inD8GuAZl" opacity="1" fill-opacity="0" stroke="#000000" stroke-width="1" stroke-opacity="0"></use></g></g><g><use xlink:href="#baeCFMicw" opacity="1" fill="#ffffff" fill-opacity="1"></use><g><use xlink:href="#baeCFMicw" opacity="1" fill-opacity="0" stroke="#000000" stroke-width="1" stroke-opacity="0"></use></g></g><g><use xlink:href="#a7366akCD" opacity="1" fill="#ffffff" fill-opacity="1"></use><g><use xlink:href="#a7366akCD" opacity="1" fill-opacity="0" stroke="#000000" stroke-width="1" stroke-opacity="0"></use></g></g><g><use xlink:href="#a7L8UVvZn9" opacity="1" fill="#ffffff" fill-opacity="1"></use><g><use xlink:href="#a7L8UVvZn9" opacity="1" fill-opacity="0" stroke="#000000" stroke-width="1" stroke-opacity="0"></use></g></g><g><use xlink:href="#c49jwzspGn" opacity="1" fill="#ffffff" fill-opacity="1"></use><g><use xlink:href="#c49jwzspGn" opacity="1" fill-opacity="0" stroke="#000000" stroke-width="1" stroke-opacity="0"></use></g></g><g><use xlink:href="#b1IC420odk" opacity="1" fill="#ffffff" fill-opacity="1"></use><g><use xlink:href="#b1IC420odk" opacity="1" fill-opacity="0" stroke="#000000" stroke-width="1" stroke-opacity="0"></use></g></g><g><use xlink:href="#ddwPbmS8n" opacity="1" fill="#ffffff" fill-opacity="1"></use><g><use xlink:href="#ddwPbmS8n" opacity="1" fill-opacity="0" stroke="#000000" stroke-width="1" stroke-opacity="0"></use></g></g><g><use xlink:href="#aRTSy4hOl" opacity="1" fill="#ffffff" fill-opacity="1"></use><g><use xlink:href="#aRTSy4hOl" opacity="1" fill-opacity="0" stroke="#000000" stroke-width="1" stroke-opacity="0"></use></g></g></g></g></svg>