<?xml version="1.0" encoding="UTF-8" standalone="no"?>
<!DOCTYPE svg PUBLIC "-//W3C//DTD SVG 1.1//EN" "http://www.w3.org/Graphics/SVG/1.1/DTD/svg11.dtd">
<svg version="1.1" xmlns="http://www.w3.org/2000/svg" xmlns:xlink="http://www.w3.org/1999/xlink" preserveAspectRatio="xMidYMid meet" viewBox="0 0 300 56" width="300" height="56"><defs><path d="M115.95 14.36C117.75 13.26 120.15 12.36 121.25 12.36C122.65 12.36 122.05 13.06 119.25 14.66C110.75 19.46 109.15 31.76 116.05 39.26C120.45 43.96 126.55 45.16 131.15 42.16C135.55 39.26 137.75 34.66 137.75 28.46C137.75 22.46 134.75 17.76 128.95 14.46C123.45 11.46 124.25 10.66 130.65 12.86C148.35 18.66 143.25 45.46 124.55 45.36C122.15 45.36 118.75 44.56 116.95 43.66C105.75 38.16 105.15 20.96 115.95 14.36Z" id="a6Bz6AN2W"></path><path d="M162.45 35.46C159.35 32.06 156.25 29.56 155.75 29.86C154.45 30.66 154.45 36.86 155.65 41.16C156.55 44.16 156.45 44.36 153.95 44.36C153.77 44.36 152.87 44.36 151.25 44.36C151.55 37.34 151.71 33.44 151.75 32.66C152.05 26.16 151.95 19.16 151.65 17.16C151.15 14.46 151.45 13.36 152.45 12.96C155.35 11.76 155.65 12.46 155.05 18.76C154.75 22.66 154.85 25.36 155.55 25.76C156.45 26.36 166.25 17.06 168.05 13.76C168.85 12.26 171.75 11.76 171.75 13.16C171.75 13.56 169.05 16.56 165.75 19.86C162.45 23.16 159.75 26.36 159.75 26.96C159.75 27.56 163.55 31.76 168.15 36.16C175.55 43.26 177.05 45.36 174.85 45.36C174.55 45.36 172.95 44.56 171.25 43.56C169.65 42.46 165.65 38.86 162.45 35.46Z" id="azCU2zzaL"></path><path d="M185.75 23.96C185.75 13.16 185.85 12.36 187.65 12.36C189.45 12.36 189.55 13.16 189.45 23.66C189.25 36.96 190.35 40.46 195.45 42.86C198.35 44.26 199.45 44.36 201.95 43.26C207.35 41.06 208.25 38.36 208.25 24.66C208.25 14.26 208.45 12.36 209.75 12.56C211.05 12.86 211.15 14.86 210.95 24.86C210.55 38.06 209.15 41.96 204.25 44.16C200.75 45.76 194.85 45.56 191.65 43.86C187.05 41.36 185.75 36.86 185.75 23.96Z" id="a3ob6PlvTk"></path><path d="M220.75 42.16C220.75 40.26 220.75 40.26 223.35 42.26C226.75 44.96 229.15 44.96 231.75 42.16C235.25 38.36 234.35 35.36 227.75 29.06C221.75 23.26 220.55 20.56 222.35 15.86C223.85 11.96 234.25 10.16 236.35 13.46C237.55 15.46 235.65 15.76 232.75 14.06C229.95 12.36 229.65 12.36 227.25 13.96C222.95 16.76 223.85 20.16 230.75 26.66C236.15 31.66 236.75 32.66 236.75 36.26C236.75 39.46 236.15 40.66 233.65 42.76C230.75 45.26 225.55 46.16 222.05 44.66C221.35 44.46 220.75 43.26 220.75 42.16Z" id="c5E22TtZwo"></path><path d="M263.45 37.76C261.15 31.96 261.05 31.86 257.05 31.56C252.35 31.16 250.85 32.66 248.55 40.16C247.75 42.86 246.65 44.36 245.65 44.36C244.25 44.36 244.45 43.06 247.25 36.16C249.15 31.56 251.85 24.56 253.35 20.56C254.85 16.66 256.35 13.36 256.75 13.36C257.05 13.36 259.55 18.86 262.25 25.66C264.85 32.36 267.85 39.26 268.75 41.06C270.15 43.46 270.25 44.36 269.35 44.66C268.65 44.96 267.55 44.86 266.85 44.46C266.25 44.06 264.65 41.06 263.45 37.76ZM256.15 20.36C255.15 20.36 252.95 25.86 252.85 28.66C252.75 29.96 253.55 30.36 256.25 30.36C258.35 30.36 259.75 29.86 259.75 29.16C259.75 26.76 257.05 20.26 256.15 20.36Z" id="c3mRrD2zvY"></path><path d="M73.55 12.56C75.45 12.26 75.55 12.66 75.05 18.36C74.65 22.96 74.85 24.76 75.75 25.36C76.85 26.06 76.85 26.46 75.85 27.76C74.85 28.96 74.65 31.56 74.95 36.86C75.45 43.96 75.35 44.36 73.35 44.36C71.25 44.36 71.25 43.96 71.45 28.66C71.65 13.76 71.75 12.86 73.55 12.56Z" id="b10dIcVWTZ"></path><path d="M93.41 27.96C92.81 27.76 92.81 26.96 93.51 25.66C94.61 23.96 94.61 22.06 93.71 14.86C93.51 13.36 94.01 12.86 95.71 12.86C98.01 12.86 98.01 12.96 98.21 28.66C98.23 29.71 98.29 34.94 98.41 44.36C96.97 44.36 96.17 44.36 96.01 44.36C93.71 44.36 93.71 44.16 94.11 36.36C94.31 31.56 94.01 28.26 93.41 27.96Z" id="a6C8LGHUlf"></path><path d="M282.75 12.56C284.75 12.26 284.75 12.66 284.65 28.26C284.55 44.06 284.55 44.36 282.45 44.36C280.25 44.36 280.25 44.16 280.45 28.66C280.65 13.56 280.75 12.86 282.75 12.56Z" id="gj1i2KA2L"></path><path d="M93.19 27.03C97.41 26.23 93.19 25.44 83.92 25.44C74.64 25.44 71.26 26.23 76.33 27.03C81.39 27.82 88.98 27.82 93.19 27.03Z" id="m2RuKwSFKB"></path><path d="M93.78 27.93C97.99 28.72 93.78 29.52 84.5 29.52C75.22 29.52 71.85 28.72 76.91 27.93C81.97 27.13 89.56 27.13 93.78 27.93Z" id="j3VNzhP3Ej"></path><path d="M96.73 27.12C98.96 27.92 96.73 28.71 91.83 28.71C86.92 28.71 85.14 27.92 87.81 27.12C90.49 26.33 94.5 26.33 96.73 27.12Z" id="f1DDxkHOM"></path><path d="M86.98 27.93C90.22 28.72 86.98 29.52 79.86 29.52C72.75 29.52 70.16 28.72 74.04 27.93C77.92 27.13 83.75 27.13 86.98 27.93Z" id="a3LLitoB02"></path><path d="M82.87 26.84C84.7 27.63 82.87 28.43 78.86 28.43C74.85 28.43 73.39 27.63 75.57 26.84C77.76 26.04 81.05 26.04 82.87 26.84Z" id="b28LwP3YXW"></path><path d="M96.67 27.93C99.9 28.72 96.67 29.52 89.55 29.52C82.43 29.52 79.85 28.72 83.73 27.93C87.61 27.13 93.43 27.13 96.67 27.93Z" id="bMQNG1AG"></path><path d="M86.79 27.03C90.03 26.23 86.79 25.44 79.68 25.44C72.56 25.44 69.97 26.23 73.85 27.03C77.73 27.82 83.56 27.82 86.79 27.03Z" id="fgwyLK41a"></path><path d="M96.67 27.03C99.9 26.23 96.67 25.44 89.55 25.44C82.43 25.44 79.85 26.23 83.73 27.03C87.61 27.82 93.43 27.82 96.67 27.03Z" id="a2uD2Eoefb"></path><path d="M21.32 48.53C18.96 47 17.38 45.6 15.8 43.72C13.06 40.45 11.25 36.5 10.48 32.2C10.13 30.22 10.09 26.06 10.41 24.23C11.32 18.99 13.29 14.88 16.62 11.26C19.33 8.32 23.04 5.93 26.94 4.61C31.51 3.07 37.27 3.18 42.39 4.87C44.72 5.67 46.74 6.81 49.11 8.7C53.95 12.57 57.21 18.32 58.11 24.59C58.37 26.38 58.33 29.75 58.02 31.69C57.89 32.58 57.76 33.45 57.73 33.65C57.7 33.85 57.57 34.29 57.46 34.63C57.33 34.98 57.2 35.37 57.18 35.5C57.15 35.63 57.04 35.98 56.91 36.26C56.79 36.53 56.62 37.08 56.52 37.49C56.42 37.88 56.28 38.24 56.24 38.29C56.13 38.36 55.91 38.71 55.56 39.34C55.37 39.66 55.37 39.81 55.5 40.07C55.66 40.34 55.65 40.36 55.46 40.2C55.27 40.05 55.21 40.07 55.14 40.27C55.08 40.42 55.04 40.56 55.05 40.59C55.07 40.62 55.02 40.69 54.95 40.74C54.71 40.91 54.18 41.74 54.18 41.97C54.18 42.1 54.08 42.2 53.97 42.2C53.85 42.2 53.66 42.39 53.53 42.63C52.87 43.92 49.4 47.13 47.08 48.6C45.9 49.37 43.53 50.53 42.3 50.97C41.71 51.17 41.19 51.4 41.14 51.49C41.08 51.56 40.71 51.65 40.27 51.68C39.85 51.72 39.46 51.82 39.4 51.92C39.35 52.01 39.22 52.04 39.11 51.98C39.03 51.92 38.8 51.94 38.64 52.02C38.26 52.21 35.65 52.5 34.65 52.47C34.27 52.46 33.32 52.4 32.52 52.33C28.26 51.99 24.78 50.81 21.32 48.53ZM37.48 51.04C36.3 50.89 35.49 50.49 34.11 49.37C33.29 48.7 31.98 47.99 31.58 47.99C31.39 47.99 31.09 48.14 30.9 48.3C30.62 48.57 30.54 48.59 30.33 48.42C30.2 48.3 29.97 48.23 29.81 48.26C29.67 48.28 29.55 48.26 29.56 48.18C29.61 48.01 29.39 47.56 29.27 47.56C29.22 47.56 29.17 47.71 29.17 47.89C29.19 48.13 29.1 48.21 28.9 48.21C28.74 48.21 28.59 48.13 28.59 48.04C28.55 47.69 28.54 47.68 28.32 47.85C28.13 48.01 28.04 47.98 27.77 47.69C27.59 47.5 27.45 47.23 27.45 47.07C27.45 46.52 27.12 46.66 27.1 47.23C27.09 47.53 27.07 48.21 27.06 48.73C27.05 48.8 27.04 49.12 27.01 49.69C26.59 49.68 26.35 49.68 26.3 49.68C25.57 49.66 25.25 49.4 25.77 49.23C26.3 49.05 26.09 48.92 25.26 48.89C24.64 48.88 24.38 48.79 24.12 48.55C23.86 48.3 23.81 48.17 23.93 48.02C24.04 47.89 24.04 47.79 23.93 47.68C23.81 47.56 23.73 47.62 23.62 47.89C23.52 48.15 23.36 48.28 23.16 48.28C22.9 48.28 22.87 48.23 22.94 47.92C23.03 47.59 23 47.56 22.55 47.56C22 47.56 21.49 47.26 21.64 47.01C21.7 46.91 21.91 46.88 22.16 46.94C22.65 47.02 22.74 46.81 22.36 46.39C22.12 46.11 22.2 45.82 22.54 45.82C22.78 45.82 22.8 45.75 22.57 45.39C22.41 45.13 22.36 45.13 22.13 45.34C21.9 45.55 21.84 45.55 21.51 45.33C21.13 45.08 21.13 44.75 21.51 44.91C21.65 44.95 21.73 44.89 21.73 44.75C21.73 44.58 21.64 44.53 21.36 44.6C21.06 44.68 21 44.65 21 44.37C21 43.97 20.49 44.04 20.48 44.46C20.45 44.88 20.13 45.42 19.94 45.34C19.84 45.31 19.78 45.14 19.81 44.95C19.84 44.68 19.8 44.65 19.46 44.72C19.26 44.78 19 44.75 18.89 44.66C18.64 44.44 18.31 44.63 18.52 44.85C18.74 45.07 18.73 45.82 18.51 45.82C18.22 45.82 19.1 46.65 20.41 47.57C22.25 48.89 26.23 50.73 28.61 51.36C30.81 51.92 31.96 52.05 34.55 51.98C35.91 51.94 37.35 51.85 37.74 51.76C39.23 51.46 39.16 51.26 37.48 51.04ZM42.45 50.46C42.45 50.39 42.23 50.23 41.98 50.1C41.53 49.88 41.49 49.88 41.26 50.17C41.08 50.37 40.85 50.46 40.42 50.46C39.88 50.46 39.79 50.41 39.65 50.02C39.48 49.56 39.16 49.44 39.03 49.79C38.93 50.07 38.58 49.94 38.37 49.56C38.26 49.34 38.27 49.23 38.49 49.07C38.65 48.95 38.68 48.88 38.56 48.86C38.46 48.86 38.24 48.99 38.07 49.15C37.69 49.5 37.4 49.53 37.29 49.23C37.23 49.11 37.01 49.01 36.8 49.01C36.32 49.01 36.09 48.76 36.42 48.63C36.55 48.59 36.65 48.44 36.65 48.33C36.65 48.17 36.55 48.14 36.23 48.21C36 48.26 35.77 48.24 35.72 48.17C35.68 48.1 35.48 48.07 35.27 48.11C35.01 48.15 34.8 48.08 34.56 47.86C34.27 47.59 34.22 47.57 34.13 47.78C34.06 47.98 34.01 47.98 33.67 47.76C33.46 47.62 33.23 47.36 33.16 47.17C33 46.72 32.74 46.75 32.74 47.2C32.74 47.43 32.65 47.56 32.52 47.56C32.39 47.56 32.3 47.43 32.3 47.24C32.3 46.79 31.64 45.39 31.42 45.39C31.32 45.39 31.27 45.55 31.32 45.82C31.36 46.07 31.36 46.26 31.35 46.26C31.33 46.26 31.22 46.28 31.1 46.34C30.96 46.39 30.87 46.28 30.81 45.98C30.75 45.69 30.56 45.47 30.26 45.31C29.93 45.14 29.83 45 29.88 44.79C29.93 44.6 29.9 44.52 29.8 44.56C29.51 44.65 29.61 45.43 29.96 45.86C30.13 46.1 30.27 46.42 30.27 46.57C30.27 46.79 30.35 46.85 30.56 46.79C30.78 46.73 30.93 46.84 31.1 47.14C31.25 47.37 31.39 47.57 31.43 47.57C31.48 47.59 31.64 47.62 31.8 47.63C32.29 47.69 33.36 48.3 33.98 48.86C35.14 49.92 36.84 50.72 38.03 50.76C38.27 50.76 38.72 50.86 39.04 50.97C39.71 51.2 40.61 51.15 41.69 50.82C42.1 50.69 42.45 50.53 42.45 50.46ZM49.91 46.04C49.98 45.97 50.31 45.66 50.92 45.08C50.53 45.27 50.31 45.38 50.27 45.4C49.91 45.59 49.58 45.72 49.52 45.71C49.47 45.69 48.95 45.85 48.37 46.05C47.21 46.46 44.08 47.34 42.95 47.59C41.52 47.89 37.09 47.43 35.95 46.85C35.67 46.71 35.13 46.31 34.77 46C34.4 45.69 33.91 45.33 33.67 45.2C33.4 45.07 33.06 44.76 32.87 44.53C32.19 43.69 31.58 42.82 31.58 42.72C31.58 42.53 31.12 41.58 30.83 41.16C30.59 40.82 30.59 40.76 30.77 40.84C30.96 40.91 30.94 40.78 30.68 40.04C30.35 39.13 29.98 38.85 30.03 39.55C30.04 39.82 29.98 39.95 29.81 40C29.65 40.03 29.55 39.95 29.55 39.82C29.55 39.49 29.25 39.37 29.09 39.65C28.88 40.03 28.35 39.68 28.43 39.21C28.48 38.98 28.42 38.85 28.23 38.79C28.09 38.75 27.94 38.59 27.91 38.46C27.87 38.33 27.84 38.46 27.83 38.76C27.81 39.2 27.75 39.3 27.52 39.3C27.3 39.3 27.23 39.2 27.23 38.94C27.23 38.74 27.17 38.58 27.09 38.58C27.01 38.58 26.94 38.52 26.94 38.43C26.94 38.36 27.03 38.29 27.14 38.29C27.28 38.29 27.32 38.18 27.28 37.98C27.22 37.75 27.1 37.69 26.86 37.75C26.62 37.79 26.51 37.75 26.51 37.61C26.51 37.32 26.94 37.2 27.28 37.4C27.48 37.53 27.59 37.55 27.71 37.43C27.8 37.34 27.96 37.27 28.07 37.27C28.29 37.27 28.78 36.84 28.72 36.71C28.7 36.66 28.8 36.62 28.94 36.62C29.09 36.62 29.2 36.75 29.23 36.95C29.26 37.14 29.38 37.27 29.54 37.27C29.67 37.27 29.87 37.36 29.96 37.45C30.1 37.59 30.17 37.59 30.26 37.43C30.43 37.16 30.83 37.33 31 37.78C31.14 38.16 31.35 38.24 31.51 38C31.56 37.91 31.74 37.88 31.91 37.94C32.19 38.03 32.2 38.01 32.03 37.79C31.87 37.59 31.87 37.56 32.06 37.56C32.17 37.56 32.35 37.66 32.46 37.79C32.56 37.92 32.77 37.98 32.94 37.94C33.33 37.84 33.81 38.26 33.59 38.52C33.46 38.68 33.51 38.75 33.78 38.85C33.98 38.92 34.22 39.18 34.32 39.42C34.45 39.72 34.58 39.82 34.75 39.78C35.01 39.71 35.64 40.39 35.64 40.74C35.64 40.82 35.78 40.97 35.97 41.05C36.14 41.13 36.61 41.42 37.01 41.69C37.4 41.97 37.97 42.24 38.24 42.29C38.52 42.34 38.87 42.45 39.03 42.52C39.22 42.62 39.26 42.62 39.19 42.5C39.14 42.42 38.69 42.16 38.2 41.92C36.51 41.14 34.48 39.07 34.48 38.14C34.48 38.01 34.22 37.65 33.9 37.34C33.33 36.79 33.16 36.4 33.46 36.4C33.55 36.4 33.65 36.5 33.71 36.63C33.78 36.82 33.81 36.82 33.91 36.66C34.01 36.5 34.09 36.5 34.35 36.66C34.53 36.78 34.71 36.81 34.78 36.74C34.98 36.53 35.8 36.69 35.88 36.94C36 37.24 35.68 37.52 35.46 37.3C35.24 37.08 34.77 37.07 34.77 37.29C34.77 37.37 34.88 37.4 35.03 37.36C35.23 37.29 35.52 37.5 36.11 38.16C36.58 38.65 36.94 39.08 36.94 39.14C36.95 39.26 37.62 40.03 37.74 40.03C37.78 40.03 37.65 39.76 37.43 39.46C36.74 38.4 37.56 38.2 38.51 39.18C38.54 39.23 38.74 39.43 39.1 39.79C39.26 39.58 39.36 39.47 39.37 39.45C39.64 39.13 39.66 39.13 40.01 39.36C40.2 39.49 40.4 39.55 40.45 39.5C40.5 39.46 40.58 39.55 40.62 39.71C40.68 39.87 40.98 40.17 41.32 40.39C41.64 40.6 42.14 41.02 42.43 41.31C43.03 41.94 44.79 42.94 46.01 43.36C46.46 43.52 46.87 43.62 46.9 43.59C46.92 43.58 46.66 43.36 46.33 43.14C45.49 42.59 45.05 42.18 45.05 41.94C45.05 41.68 46.08 41.79 47.3 42.18C48.11 42.46 48.13 42.46 48.42 42.17C48.62 41.97 48.82 41.91 49.08 41.97C49.34 42.02 49.24 41.92 48.79 41.69C47.53 41.02 47.66 40.78 49.14 41.08C50.87 41.45 51.33 41.49 51.16 41.27C50.94 41.01 51.11 40.89 51.72 40.89C52.02 40.89 52.56 40.85 52.94 40.81C52.98 40.8 53.22 40.77 53.63 40.71C53.38 40.51 53.24 40.4 53.21 40.37C52.73 40 52.81 39.87 53.56 39.82C53.86 39.81 54.2 39.75 54.3 39.68C54.4 39.62 54.6 39.62 54.76 39.66C55.01 39.74 55.1 39.65 55.29 39.23C55.53 38.61 55.49 38.49 55.08 38.71C54.91 38.79 54.65 38.87 54.49 38.87C54.33 38.87 54.1 38.97 53.97 39.1C53.85 39.23 53.5 39.33 53.21 39.33C52.92 39.33 52.52 39.39 52.31 39.47C51.4 39.82 50.2 40 47.95 40.1C45.07 40.23 43.06 40.03 41.85 39.46C41.35 39.23 40.48 38.95 39.91 38.85C38.69 38.65 38.37 38.5 37.49 37.71C37.09 37.36 36.72 37.16 36.64 37.21C36.53 37.27 36.51 37.26 36.55 37.19C36.65 37 36.53 36.84 36.03 36.45C35.8 36.27 35.53 36.16 35.43 36.2C34.9 36.4 33.2 35.2 32.04 33.81C31.64 33.33 31.29 32.87 31.26 32.78C31.23 32.68 30.88 32.55 30.49 32.48C30.09 32.4 29.49 32.16 29.16 31.93C28.58 31.52 28.52 31.5 28.13 31.71C27.85 31.84 27.55 32.21 27.29 32.71C27.07 33.14 26.81 33.5 26.72 33.5C26.64 33.5 26.39 33.68 26.19 33.91C25.99 34.13 25.43 34.68 24.94 35.14C24.2 35.84 23.99 35.97 23.52 35.97C23.1 35.97 22.88 36.07 22.49 36.48C22.22 36.75 21.97 36.98 21.93 36.98C21.9 36.98 21.61 37.14 21.29 37.34C20.97 37.55 20.58 37.71 20.42 37.71C20.26 37.71 20.13 37.79 20.13 37.9C20.13 38.03 19.73 38.05 18.52 38.04C17.16 38.01 16.8 38.05 16.22 38.3C15.65 38.55 15.29 38.59 14.2 38.55C13.02 38.5 12.87 38.53 12.93 38.75C13.07 39.27 14.39 41.31 14.54 41.23C14.63 41.17 14.63 41.11 14.51 41.07C14.26 41 14.29 40.6 14.54 40.6C14.65 40.6 14.78 40.66 14.83 40.74C14.91 40.88 15.54 40.79 16.1 40.56C16.39 40.43 16.48 40.31 16.42 40.14C16.29 39.74 16.64 39.84 16.8 40.26C17 40.76 16.99 40.89 16.7 41C16.57 41.05 16.31 41.26 16.15 41.45C15.83 41.82 15.41 41.78 15.55 41.39C15.65 41.11 15.48 41.14 15.1 41.46C14.64 41.85 14.68 41.91 15.42 41.91C15.78 41.91 16.25 42.01 16.44 42.14C16.76 42.34 16.81 42.34 17.02 42.14C17.15 42.02 17.33 41.95 17.45 42C17.62 42.07 17.67 41.97 17.67 41.58C17.67 41.14 17.73 41.04 18.1 40.92C18.45 40.79 18.58 40.81 18.75 41C18.97 41.2 19.02 41.2 19.28 40.91C19.61 40.56 19.57 40.56 20.09 40.75C20.45 40.88 20.46 40.88 20.23 40.69C19.89 40.42 19.97 39.98 20.39 39.88C20.71 39.81 20.71 39.81 20.28 39.39C20.03 39.16 19.87 38.94 19.91 38.89C20.02 38.79 20.7 39.16 21.04 39.49C21.41 39.85 21.45 40.5 21.1 40.58C20.96 40.6 20.86 40.53 20.86 40.4C20.86 40.27 20.75 40.17 20.64 40.17C20.39 40.17 20.35 40.42 20.58 40.49C20.84 40.58 20.78 41.36 20.51 41.56C20.35 41.68 20.32 41.76 20.41 41.84C20.49 41.88 20.78 41.68 21.06 41.39C21.54 40.87 21.58 40.85 21.93 41.04C22.42 41.3 22.52 41.17 22.15 40.78C21.84 40.45 21.88 40.13 22.22 40.26C22.84 40.49 22.78 42.11 22.16 41.95C22 41.91 21.87 41.75 21.87 41.6C21.87 41.45 21.8 41.33 21.73 41.33C21.64 41.33 21.58 41.68 21.61 42.2C21.64 42.81 21.7 43.07 21.84 43.07C21.94 43.07 21.99 43 21.93 42.89C21.87 42.81 21.94 42.65 22.09 42.55C22.31 42.39 22.42 42.39 22.75 42.58C23.2 42.81 23.35 43.17 22.93 43C22.45 42.81 22.38 42.85 22.42 43.29C22.45 43.56 22.38 43.78 22.22 43.89C22.02 44.04 22 44.11 22.16 44.3C22.26 44.42 22.41 44.47 22.49 44.42C22.57 44.37 22.59 44.4 22.55 44.47C22.49 44.56 22.61 44.73 22.8 44.85C23.12 45.07 23.16 45.07 23.39 44.81C23.61 44.58 23.61 44.49 23.46 44.3C23.36 44.18 23.16 44.08 23.02 44.08C22.61 44.08 22.54 43.81 22.9 43.66C23.17 43.58 23.3 43.63 23.64 44C23.93 44.3 24.04 44.37 24.04 44.2C24.04 44.07 24.16 43.92 24.29 43.88C24.49 43.79 24.49 43.76 24.22 43.56C23.84 43.3 23.8 42.89 24.13 42.95C24.28 42.98 24.41 42.91 24.44 42.82C24.48 42.72 24.41 42.63 24.29 42.63C23.99 42.63 23.7 42.26 23.9 42.13C23.99 42.07 24.03 41.94 23.99 41.82C23.94 41.69 24 41.62 24.16 41.62C24.49 41.62 24.99 43.17 24.75 43.46C24.62 43.6 24.64 43.65 24.81 43.65C24.94 43.65 25.16 43.49 25.3 43.3C25.52 43.04 25.64 42.98 25.83 43.1C26.01 43.2 26.07 43.17 26.07 42.98C26.07 42.84 26.17 42.6 26.32 42.46C26.54 42.21 26.54 42.2 26.1 42.29C25.61 42.39 25.46 42.17 25.87 41.94C26.03 41.85 26.06 41.78 25.94 41.71C25.7 41.55 25.74 40.89 26 40.89C26.13 40.89 26.22 41.02 26.22 41.23C26.22 41.63 26.71 42.16 26.87 41.92C26.91 41.84 26.88 41.76 26.78 41.76C26.68 41.76 26.65 41.62 26.68 41.42C26.72 41.2 26.65 41.02 26.48 40.91C26.14 40.71 26.14 40.52 26.49 40.42C26.68 40.37 26.8 40.43 26.84 40.63C26.9 40.84 27 40.88 27.26 40.82C27.49 40.76 27.68 40.81 27.8 40.95C27.93 41.11 28.06 41.14 28.25 41.04C28.38 40.97 28.54 40.94 28.58 41C28.64 41.04 28.71 40.97 28.77 40.84C28.81 40.71 28.94 40.6 29.06 40.6C29.17 40.6 29.26 40.5 29.26 40.39C29.26 40.11 29.64 40.1 29.8 40.36C29.85 40.47 30.01 40.62 30.14 40.69C30.32 40.79 30.35 40.91 30.26 41.16C30.12 41.55 29.75 41.58 29.62 41.18C29.52 40.88 29.33 40.81 29.2 41.02C29.16 41.1 29.2 41.18 29.3 41.23C29.43 41.27 29.48 41.46 29.43 41.76C29.38 42.17 29.41 42.21 29.7 42.17C29.94 42.14 30.09 42.24 30.29 42.63C30.43 42.91 30.61 43.21 30.68 43.29C30.74 43.37 30.84 43.55 30.9 43.71C30.97 43.89 31.09 43.95 31.36 43.88C31.77 43.78 32.07 44.15 31.87 44.52C31.8 44.66 31.88 45.02 32.13 45.56C32.46 46.26 32.58 46.39 32.9 46.4C33.2 46.4 33.35 46.52 33.54 46.92C33.72 47.34 33.81 47.4 33.98 47.26C34.14 47.13 34.29 47.17 34.68 47.47C35 47.71 35.22 47.79 35.27 47.71C35.4 47.5 36.62 47.68 37.06 47.97C37.23 48.08 37.37 48.3 37.37 48.44C37.37 48.7 37.45 48.72 38.09 48.63C38.69 48.56 38.81 48.59 39 48.85C39.13 49.02 39.32 49.13 39.42 49.08C39.78 48.95 40.78 49.37 40.74 49.65C40.68 49.98 40.95 49.94 41.07 49.6C41.2 49.2 41.55 49.11 41.75 49.44C41.85 49.6 42.01 49.73 42.1 49.73C42.2 49.73 42.42 49.86 42.61 50.02C43.01 50.34 43.16 50.33 44.62 49.65C46.16 48.92 48.72 47.18 49.91 46.04ZM26.22 47.86C26.22 47.62 26.01 47.68 25.74 47.99C25.42 48.37 25.42 48.4 25.87 48.4C26.07 48.4 26.32 48.47 26.41 48.56C26.54 48.69 26.59 48.69 26.64 48.56C26.67 48.46 26.58 48.3 26.45 48.21C26.32 48.11 26.22 47.97 26.22 47.86ZM24.78 47.15C24.67 47.11 24.64 47.21 24.71 47.47C24.77 47.75 24.72 47.95 24.55 48.14C24.3 48.42 24.3 48.43 24.61 48.43C24.8 48.43 24.97 48.3 25.04 48.11C25.17 47.73 25.04 47.24 24.78 47.15ZM49.11 45.46C50.42 45 51.87 44.23 51.87 44.01C51.87 43.89 51.81 43.79 51.72 43.79C51.65 43.79 51.58 43.85 51.58 43.92C51.58 44 51.45 44.02 51.29 43.98C51.13 43.94 50.69 44.01 50.31 44.14C49.92 44.27 49.34 44.44 49.01 44.52C48.68 44.6 48.36 44.73 48.32 44.81C48.2 45.01 47.43 44.98 45.63 44.73C44.79 44.62 43.36 44.43 42.45 44.3C41.21 44.14 40.71 44.01 40.49 43.79C40.32 43.63 40.08 43.5 39.97 43.5C39.85 43.5 39.61 43.4 39.43 43.27C39.22 43.13 39.11 43.11 39.11 43.23C39.11 43.46 37.81 43.26 37.48 42.95C37.24 42.75 37.2 42.75 37.07 42.92C36.97 43.1 36.82 43.02 36.35 42.52C36.03 42.18 35.69 41.95 35.62 42C35.53 42.04 35.39 42 35.27 41.91C35.16 41.82 35.01 41.78 34.94 41.82C34.87 41.87 34.71 41.76 34.58 41.6C34.43 41.45 34.26 41.36 34.17 41.4C34.09 41.47 34.07 41.56 34.17 41.66C34.26 41.78 34.22 41.94 34.04 42.17C33.71 42.58 33.61 42.58 33.61 42.18C33.61 41.94 33.54 41.89 33.25 41.94C32.81 42.02 32.61 41.79 32.91 41.56C33.27 41.29 33.33 40.87 33.1 40.08C32.97 39.6 32.77 39.24 32.58 39.14C32.32 39.01 32.29 39.03 32.35 39.26C32.67 40.31 32.61 41.84 32.27 41.5C32.19 41.42 32.06 41.21 31.96 41.02C31.49 40.11 31.27 41.21 31.71 42.24C32.06 43.07 33.54 44.95 33.82 44.95C33.94 44.95 34.4 45.29 34.85 45.68C35.32 46.08 35.85 46.44 36.06 46.49C36.26 46.55 36.74 46.68 37.1 46.79C37.48 46.91 38.33 47.08 38.98 47.2C39.65 47.3 40.22 47.39 40.24 47.4C40.26 47.4 40.91 47.34 41.69 47.26C43.53 47.07 47.01 46.21 49.11 45.46ZM23.8 46.97C23.57 46.73 23.55 46.4 23.77 46.4C23.87 46.4 24.03 46.52 24.13 46.66C24.3 46.88 24.35 46.88 24.48 46.69C24.72 46.33 24.65 46.07 24.33 46.15C24.15 46.2 24.04 46.15 24.04 46.02C24.04 45.76 24.71 45.75 24.81 46.01C24.86 46.1 24.9 46.04 24.9 45.88C24.91 45.71 25.01 45.53 25.13 45.47C25.29 45.42 25.35 45.5 25.35 45.86C25.35 46.13 25.29 46.43 25.22 46.55C25.03 46.82 25.19 47.04 25.42 46.84C25.55 46.73 25.81 46.71 26.07 46.76C26.46 46.85 26.51 46.82 26.51 46.49C26.51 46.07 26.75 45.86 26.99 46.1C27.26 46.37 27.38 46.27 27.29 45.84C27.28 45.81 27.25 45.67 27.2 45.43C27.6 45.49 27.82 45.52 27.87 45.53C28.25 45.59 28.58 45.59 28.61 45.53C28.7 45.4 28.33 45.24 27.99 45.24C27.85 45.24 27.52 44.98 27.26 44.66C26.86 44.17 26.81 44.05 26.94 43.71C27.04 43.43 27.04 43.27 26.93 43.13C26.75 42.91 26.45 43 26.58 43.21C26.67 43.34 26.39 43.94 26.16 44.1C26.1 44.15 25.91 44.15 25.77 44.13C25.62 44.08 25.49 44.13 25.49 44.2C25.49 44.29 25.29 44.58 25.03 44.84C24.77 45.1 24.61 45.2 24.65 45.07C24.71 44.94 24.67 44.76 24.57 44.68C24.44 44.56 24.3 44.63 24.06 44.97C23.8 45.31 23.7 45.37 23.54 45.24C23.42 45.14 23.26 45.11 23.17 45.17C22.94 45.31 23 45.97 23.28 46.07C23.48 46.14 23.46 46.18 23.2 46.27C23 46.34 22.88 46.52 22.88 46.73C22.88 47.17 23.03 47.31 23.25 47.13C23.35 47.04 23.55 47.02 23.7 47.07C23.93 47.15 23.94 47.14 23.8 46.97ZM27.87 46.01C27.77 46.11 27.97 46.55 28.12 46.55C28.19 46.55 28.25 46.46 28.25 46.34C28.25 46.13 27.99 45.89 27.87 46.01ZM17.89 45.52C17.93 45.6 18.04 45.63 18.13 45.59C18.22 45.53 18.22 45.44 18.12 45.34C17.93 45.15 17.74 45.3 17.89 45.52ZM28.36 44.52C27.67 44.43 27.3 44.24 27.64 44.13C27.88 44.04 27.85 43.65 27.61 43.65C27.26 43.65 27.25 44.01 27.55 44.5C27.8 44.88 27.93 44.95 28.19 44.89C28.36 44.85 28.56 44.86 28.61 44.95C28.77 45.2 29.14 45.11 29.09 44.85C29.06 44.66 28.85 44.58 28.36 44.52ZM17.86 44.23C17.64 44.23 17.64 44.26 17.76 44.58C17.89 44.89 18.04 44.86 18.04 44.52C18.04 44.36 17.96 44.23 17.86 44.23ZM30.71 44.3C30.62 44.24 30.56 44.24 30.56 44.29C30.56 44.31 30.52 44.44 30.48 44.58C30.43 44.71 30.45 44.81 30.54 44.81C30.61 44.81 30.71 44.71 30.75 44.59C30.81 44.47 30.78 44.34 30.71 44.3ZM46.55 43.94C45.16 43.53 42.87 42.24 42.03 41.39C41.48 40.82 41.27 40.69 41 40.72C40.95 40.72 40.79 40.55 40.64 40.31C40.35 39.88 39.69 39.49 39.69 39.74C39.69 39.82 39.98 40.17 40.32 40.52C40.66 40.87 41 41.26 41.04 41.39C41.1 41.52 41.26 41.66 41.39 41.72C41.53 41.76 41.85 41.98 42.08 42.2C42.33 42.42 42.92 42.78 43.43 43C44.03 43.27 44.32 43.47 44.3 43.62C44.27 43.79 44.61 43.92 45.71 44.17C47.29 44.52 47.87 44.59 47.75 44.4C47.71 44.33 47.17 44.13 46.55 43.94ZM19.68 43.79C19.61 43.79 19.55 43.89 19.55 44.01C19.55 44.13 19.65 44.23 19.77 44.23C19.9 44.23 19.94 44.14 19.9 44.01C19.84 43.89 19.75 43.79 19.68 43.79ZM17.64 43.68C17.77 43.81 17.9 43.79 18.18 43.65C18.54 43.46 18.55 43.4 18.51 42.37C18.48 41.37 18.36 41.01 18.19 41.3C18.15 41.37 18.19 41.63 18.28 41.88C18.42 42.24 18.41 42.37 18.19 42.71C17.99 43.01 17.86 43.07 17.58 43.01C17.33 42.94 17.23 42.98 17.23 43.13C17.23 43.39 16.71 43.71 16.51 43.58C16.42 43.53 16.36 43.36 16.36 43.2C16.36 43.02 16.26 42.92 16.07 42.92C15.6 42.92 15.8 43.36 16.51 43.84C16.84 44.07 16.87 44.07 16.97 43.79C17.03 43.63 17.16 43.5 17.28 43.5C17.38 43.5 17.54 43.58 17.64 43.68ZM47.4 42.65C46.58 42.33 45.78 42.17 45.78 42.31C45.78 42.71 49.01 44.13 49.58 43.97C49.72 43.94 49.82 43.88 49.79 43.85C49.66 43.72 48.01 42.88 47.4 42.65ZM19.07 43.36C19.04 43.36 18.9 43.49 18.75 43.65C18.61 43.81 18.57 43.94 18.65 43.94C18.74 43.94 18.89 43.81 18.97 43.65C19.06 43.49 19.1 43.36 19.07 43.36ZM40.52 41.85C40.04 41.27 39.93 41.2 39.74 41.36C39.55 41.52 39.43 41.46 39.03 40.98C38.52 40.4 38.24 40.34 38.52 40.87C38.61 41.02 38.64 41.26 38.59 41.39C38.53 41.52 38.65 41.68 38.93 41.82C39.14 41.94 39.48 42.2 39.66 42.4C39.97 42.73 41.27 43.21 42.49 43.43C42.78 43.49 43.07 43.59 43.11 43.66C43.16 43.73 43.3 43.79 43.43 43.79C43.56 43.78 43.1 43.5 42.37 43.16C41.36 42.68 40.94 42.39 40.52 41.85ZM20.83 43.24C20.68 43.1 20.68 43.02 20.86 42.92C21.15 42.73 20.91 42.73 20.57 42.92C20.23 43.1 20.35 43.65 20.73 43.65C20.88 43.65 21 43.59 21 43.53C21 43.47 20.91 43.33 20.83 43.24ZM50.79 42.94C50.76 42.94 50.61 42.94 50.34 42.95C50.6 43.07 50.75 43.13 50.78 43.14C51.02 43.26 51.34 43.34 51.5 43.34C51.79 43.34 51.79 43.34 51.52 43.14C51.36 43.02 51.02 42.92 50.79 42.94ZM29.55 42.84C29.55 42.97 29.65 43.07 29.78 43.07C29.91 43.07 29.98 43 29.96 42.89C29.87 42.63 29.55 42.59 29.55 42.84ZM28.93 42.53C28.83 42.55 28.75 42.37 28.75 42.14C28.75 41.56 28.45 41.5 28.35 42.05C28.23 42.62 28.26 42.69 28.59 42.73C28.75 42.76 28.91 42.82 28.96 42.85C29.1 43.01 29.25 42.91 29.17 42.71C29.13 42.59 29.01 42.52 28.93 42.53ZM52.04 42.01C50.37 41.69 50.03 41.71 50.85 42.08C51.95 42.58 53.15 42.73 53.27 42.4C53.3 42.31 52.78 42.16 52.04 42.01ZM27.28 41.49C27.14 41.62 27.14 41.72 27.28 41.92C27.48 42.26 27.81 42.02 27.71 41.62C27.62 41.29 27.51 41.26 27.28 41.49ZM37.16 40.26C36.91 39.71 36.26 38.92 36.14 39.03C36.1 39.07 36.2 39.27 36.38 39.46C36.53 39.65 36.71 39.98 36.75 40.2C36.8 40.43 37.09 40.79 37.49 41.11C38.3 41.74 38.59 41.78 37.88 41.17C37.59 40.91 37.27 40.5 37.16 40.26ZM31.36 39.72C31.29 39.72 31.2 39.78 31.17 39.87C31.14 39.95 31.23 40.03 31.36 40.03C31.49 40.03 31.58 39.95 31.55 39.87C31.52 39.78 31.43 39.72 31.36 39.72ZM33.82 39.5C33.62 39.23 33.62 39.23 33.61 39.53C33.61 39.69 33.65 39.88 33.71 39.92C33.84 40.07 34.04 40.05 34.04 39.91C34.04 39.84 33.94 39.66 33.82 39.5ZM48.24 39.37C48.49 39.6 48.53 39.59 48.82 39.3C49.04 39.08 49.24 39.01 49.47 39.07C49.71 39.13 49.91 39.04 50.18 38.78C50.5 38.46 50.63 38.42 51.07 38.49C51.4 38.56 51.63 38.69 51.71 38.89C51.81 39.18 51.82 39.17 52.05 38.81C52.3 38.45 52.3 38.43 51.94 38.34C51.73 38.3 51.58 38.2 51.58 38.14C51.58 38 52.27 37.82 52.46 37.92C52.69 38.08 53.14 37.85 53.21 37.55C53.29 37.29 53.37 37.26 53.73 37.34C54.18 37.45 54.36 37.26 54.02 37.04C53.69 36.84 54.21 36.72 54.59 36.92C54.85 37.05 55.02 37.07 55.14 36.97C55.24 36.88 55.44 36.82 55.59 36.84C56.1 36.9 56.49 36.66 56.63 36.23C56.84 35.68 56.84 35.53 56.65 35.53C56.57 35.53 56.5 35.62 56.5 35.72C56.5 35.84 56.36 35.91 56.18 35.9C56 35.88 55.85 35.78 55.85 35.66C55.85 35.55 55.97 35.48 56.11 35.48C56.24 35.49 56.36 35.45 56.36 35.39C56.36 35.32 56.5 35.24 56.68 35.21C56.99 35.17 57.14 34.85 57.31 33.72C57.32 33.69 57.34 33.55 57.39 33.29C57.06 33.64 56.87 33.84 56.84 33.88C55.72 35.07 51.58 38.07 50.84 38.21C50.68 38.24 50.34 38.34 50.08 38.42C49.36 38.65 47.34 39.17 46.87 39.24C46.63 39.27 45.72 39.34 44.84 39.4C42.69 39.52 43.26 39.72 45.71 39.71C47.4 39.71 47.61 39.68 47.78 39.42C47.97 39.16 48 39.16 48.24 39.37ZM37.58 38.91C37.43 39.05 37.81 39.45 38.07 39.45C38.26 39.45 38.24 39.39 38 39.13C37.81 38.95 37.64 38.85 37.58 38.91ZM29.59 38.03C29.58 38 29.54 37.89 29.46 37.69C29.23 37.93 29.1 38.06 29.07 38.08C28.62 38.53 28.58 38.79 28.94 39C29.38 39.26 29.77 39.13 29.75 38.72C29.74 38.52 29.68 38.21 29.59 38.03ZM31.16 38.75C31.07 38.72 31 38.81 31 38.94C31 39.07 31.07 39.16 31.16 39.13C31.25 39.1 31.32 39.01 31.32 38.94C31.32 38.87 31.25 38.78 31.16 38.75ZM51.4 37.56C52.56 37.01 54.78 35.36 56.37 33.82C56.46 33.74 56.88 33.34 57.63 32.62C57.75 31.91 57.81 31.51 57.82 31.43C57.95 30.71 58.02 29.26 58.01 27.71C57.98 24.85 57.63 22.68 56.79 20.16C54.44 13.15 48.6 7.26 41.85 5.12C39.33 4.31 37 3.93 34.64 3.93C30.78 3.94 28.36 4.35 25.67 5.41C19.42 7.89 14.41 12.96 12 19.23C11.05 21.72 10.29 25.53 10.74 25.53C10.86 25.53 11.02 25.46 11.12 25.36C11.21 25.27 11.38 25.17 11.5 25.16C12.68 24.98 14.96 23.17 16.71 21C17.31 20.23 18.06 19.48 18.35 19.29C18.65 19.1 19.55 18.39 20.33 17.68C21.33 16.81 21.99 16.35 22.45 16.19C22.83 16.06 23.26 15.83 23.41 15.67C23.8 15.23 24.74 14.73 25.49 14.52C25.86 14.42 26.23 14.28 26.32 14.2C26.42 14.12 26.97 14.03 27.55 14C28.13 13.96 28.78 13.87 29 13.78C29.77 13.48 32.33 13.84 32.68 14.29C32.77 14.42 32.98 14.52 33.16 14.52C33.33 14.52 33.58 14.58 33.72 14.65C33.85 14.73 34.17 14.87 34.42 14.97C34.67 15.07 35.01 15.38 35.19 15.65C35.43 16.03 35.58 16.13 35.82 16.06C36.04 16 36.27 16.13 36.68 16.57C37.16 17.06 37.2 17.19 37.09 17.51C37 17.71 37 17.84 37.07 17.8C37.13 17.75 37.27 17.97 37.37 18.29C37.53 18.75 37.53 18.9 37.37 19.09C37.1 19.41 36.94 19.35 36.94 18.93C36.94 18.51 36.56 18.49 36.3 18.9C36.03 19.33 36.42 19.51 37.71 19.54C38.36 19.56 39.16 19.65 39.48 19.74C39.79 19.83 40.2 19.94 40.39 19.99C40.77 20.07 41.06 20.65 40.93 21.04C40.87 21.2 40.97 21.33 41.21 21.45C41.42 21.54 41.58 21.71 41.58 21.84C41.58 21.97 41.71 22.06 41.94 22.06C42.14 22.06 42.32 22.13 42.32 22.2C42.33 22.29 42.35 22.43 42.36 22.54C42.4 22.81 42.14 23.51 42 23.51C41.92 23.51 41.78 23.35 41.69 23.14C41.61 22.94 41.48 22.78 41.42 22.78C41.23 22.78 40.84 23.23 40.69 23.61C40.48 24.19 40.53 24.42 40.85 24.33C41.06 24.27 41.23 24.38 41.43 24.67C41.78 25.16 41.79 25.43 41.49 25.74C41.16 26.07 41 26.03 41 25.58C41 25.55 40.99 25.42 40.98 25.17C40.86 25.41 40.79 25.54 40.78 25.56C40.61 25.87 40.59 26.03 40.72 26.32C40.85 26.61 40.85 26.74 40.71 26.91C40.43 27.24 40.08 27.19 40.2 26.84C40.33 26.45 40.03 26.46 39.71 26.87C39.39 27.26 38.9 27.13 39.04 26.69C39.13 26.43 39.1 26.42 38.77 26.53C38.51 26.64 38.36 26.62 38.24 26.48C38.01 26.2 38.19 25.77 38.46 25.88C38.61 25.94 38.68 25.87 38.68 25.67C38.68 25.4 38.62 25.38 38.26 25.46C37.91 25.53 37.8 25.49 37.66 25.26C37.48 24.9 37.24 24.93 36.9 25.36C36.58 25.74 36.32 25.77 36.06 25.45C35.91 25.26 35.91 25.2 36.09 25.09C36.2 25.01 36.22 24.96 36.13 24.96C36.04 24.96 35.88 25.06 35.78 25.17C35.55 25.45 35.14 25.45 34.93 25.19C34.78 25.01 34.81 24.94 35.04 24.81C35.48 24.59 35.42 24.26 34.96 24.2C34.71 24.17 34.55 24.07 34.55 23.94C34.55 23.82 34.64 23.74 34.74 23.75C35.03 23.82 34.94 23.55 34.62 23.46C34.46 23.42 34.2 23.51 34.01 23.68C33.78 23.87 33.56 23.94 33.29 23.88C32.97 23.82 32.83 23.9 32.45 24.39C32.04 24.88 31.96 25.17 31.77 26.45C31.59 27.66 31.59 28.11 31.74 29C31.91 30.04 32.58 31.53 33.42 32.78C33.59 33.06 33.75 33.4 33.75 33.55C33.75 33.87 35.56 35.71 36.11 35.94C36.33 36.03 36.51 36.17 36.51 36.24C36.51 36.46 37.95 37.85 38.39 38.05C38.74 38.23 39 38.29 41.21 38.78C42.71 39.1 42.79 39.13 43.03 39.14C43.14 39.14 43.95 39.08 44.82 39.01C47.03 38.79 50.3 38.08 51.4 37.56ZM50.71 38.85C50.71 39.04 50.89 39.16 51.17 39.16C51.33 39.16 51.42 39.1 51.37 39.03C51.27 38.87 50.71 38.72 50.71 38.85ZM30.64 38.13C30.69 37.97 30.67 37.85 30.58 37.85C30.49 37.85 30.42 37.98 30.42 38.13C30.42 38.29 30.38 38.5 30.33 38.63C30.26 38.82 30.3 38.82 30.62 38.68C30.88 38.56 30.93 38.49 30.77 38.46C30.62 38.43 30.58 38.32 30.64 38.13ZM53.07 38.43C52.88 38.43 52.88 38.47 53.02 38.65C53.21 38.87 53.53 38.81 53.39 38.56C53.33 38.49 53.2 38.43 53.07 38.43ZM34.85 37.71C34.81 37.71 34.77 37.82 34.77 37.98C34.77 38.17 34.87 38.26 35.14 38.26C35.35 38.26 35.59 38.33 35.68 38.42C35.87 38.61 35.93 38.62 35.93 38.45C35.93 38.32 35.04 37.71 34.85 37.71ZM14.1 37.1C14 36.49 14 36.49 13.61 36.69C13.42 36.79 13.31 36.79 13.23 36.66C13.18 36.58 13.21 36.46 13.29 36.43C13.54 36.36 13.51 36.11 13.25 36.11C13.13 36.11 13.03 35.98 13.03 35.82C13.03 35.4 12.87 35.46 12.39 36.05C12.37 36.09 12.23 36.26 11.99 36.58C12.13 36.95 12.2 37.16 12.22 37.2C12.51 37.94 12.67 38.1 13.25 38.18C14.28 38.33 14.38 38.32 14.28 37.97C14.23 37.78 14.15 37.39 14.1 37.1ZM15.91 36.75C15.74 36.2 15.55 35.69 15.49 35.62C15.42 35.55 15.41 35.4 15.45 35.3C15.57 34.98 15.35 35.07 15.03 35.46C14.87 35.66 14.65 35.82 14.55 35.82C14.29 35.82 14.13 36.37 14.32 36.61C14.41 36.71 14.44 36.82 14.39 36.87C14.35 36.91 14.39 37.21 14.48 37.55C14.64 38.13 14.65 38.14 15.26 38.14C15.61 38.14 15.96 38.05 16.05 37.95C16.16 37.81 16.13 37.49 15.91 36.75ZM17.52 37.19C17.62 37.45 17.78 37.55 18.22 37.59C18.77 37.63 18.78 37.62 18.67 37.32C18.51 36.88 18.62 36.9 19.04 37.39C19.32 37.71 19.42 37.75 19.57 37.61C19.67 37.5 19.96 37.42 20.22 37.42C21.03 37.42 21.07 37.2 20.6 35.29C20.35 34.34 20.12 33.14 20.06 32.61C20 32.06 19.93 31.62 19.89 31.62C19.75 31.62 19.41 32.04 19.26 32.37C19.19 32.56 19.04 32.81 18.94 32.94C18.81 33.13 18.86 33.43 19.15 34.36C19.35 35.01 19.46 35.58 19.39 35.62C19.2 35.74 18.87 34.87 18.67 33.74C18.51 32.81 18.49 32.77 18.12 32.81C17.78 32.85 17.74 32.79 17.7 32.35C17.67 32.07 17.55 31.74 17.44 31.61C17.25 31.39 17.25 31.33 17.47 31.13C17.65 30.94 17.67 30.85 17.52 30.68C17.42 30.56 17.25 30.46 17.15 30.46C17.03 30.46 16.94 30.37 16.94 30.26C16.94 30.14 16.84 30.03 16.73 29.97C16.57 29.91 16.51 30.01 16.48 30.36C16.47 30.62 16.45 30.98 16.44 31.19C16.42 31.39 16.41 31.77 16.39 32.03C16.35 32.66 16.07 32.48 16.07 31.82C16.07 31.3 15.93 31.2 15.65 31.53C15.47 31.77 15.6 32.62 15.84 32.66C15.93 32.66 16.07 32.69 16.15 32.69C16.49 32.74 16.61 32.95 16.64 33.65C16.65 34.04 16.76 34.68 16.87 35.07C17.13 35.91 17.15 36.11 16.91 36.11C16.74 36.11 16.22 34.68 16.15 34.04C16.13 33.9 16.05 33.71 15.94 33.61C15.81 33.48 15.78 33.58 15.8 34.01C15.83 34.97 16.09 36.45 16.31 36.94C16.42 37.19 16.51 37.46 16.51 37.56C16.51 37.65 16.65 37.71 16.84 37.68C17.09 37.65 17.15 37.55 17.12 37.24C17.07 36.75 17.33 36.71 17.52 37.19ZM21.58 35.5C21.22 34.2 21.06 32.92 21.28 32.92C21.36 32.92 21.46 33.07 21.51 33.26C21.74 34.27 22.03 35.63 22.06 35.87C22.12 36.3 22.38 36.2 22.54 35.68C22.64 35.37 22.65 35.08 22.58 34.92C22.51 34.79 22.45 34.29 22.45 33.81C22.45 33.33 22.38 32.9 22.31 32.85C22.22 32.79 22.19 32.55 22.25 32.26C22.33 31.79 22.31 31.77 22 31.79C21.68 31.84 21.65 31.78 21.61 31.16C21.58 30.64 21.52 30.49 21.35 30.56C21.25 30.61 21.15 30.79 21.15 30.98C21.15 31.17 20.96 31.49 20.7 31.74C20.67 31.76 20.52 31.9 20.26 32.14C20.4 32.92 20.48 33.36 20.49 33.45C20.77 34.97 21.29 36.84 21.44 36.84C21.49 36.84 21.61 36.75 21.7 36.65C21.81 36.52 21.77 36.19 21.58 35.5ZM11.44 34.92C11.44 35.01 11.51 35.13 11.58 35.17C11.67 35.23 11.73 35.34 11.71 35.43C11.7 35.53 11.7 35.71 11.71 35.82C11.73 36 11.77 35.98 11.89 35.78C12 35.59 11.96 35.43 11.74 35.14C11.57 34.94 11.44 34.84 11.44 34.92ZM24.94 34.07C24.86 33.79 24.74 33.27 24.68 32.9C24.59 32.19 24.33 31.93 24.33 32.53C24.33 32.72 24.23 33 24.12 33.16C23.91 33.43 23.9 33.43 23.81 33.11C23.77 32.92 23.67 32.78 23.59 32.78C23.52 32.78 23.46 32.68 23.46 32.56C23.46 32.3 23.33 32.29 23 32.55C22.84 32.66 22.74 32.94 22.74 33.24C22.74 34.01 23.04 35.45 23.22 35.56C23.51 35.74 24.1 35.52 24.61 35.03C25.06 34.59 25.09 34.52 24.94 34.07ZM33.54 33.75C33.48 33.5 33.32 33.13 33.17 32.92C32.54 32 31.71 30.29 31.56 29.58C31.35 28.55 31.19 26.56 31.32 26.64C31.43 26.71 31.51 26.42 31.64 25.48C31.68 25.17 31.94 24.59 32.22 24.19C32.65 23.56 32.69 23.45 32.51 23.26C32.35 23.09 32.33 22.98 32.48 22.74C32.58 22.56 32.64 22.35 32.62 22.25C32.61 22.16 32.65 22.04 32.74 21.98C32.98 21.84 32.9 21.62 32.59 21.62C32.45 21.62 32.26 21.52 32.2 21.41C32.1 21.23 31.98 21.27 31.54 21.64C30.96 22.12 30.64 22.12 31.07 21.62C31.27 21.39 31.29 21.29 31.16 21.13C30.93 20.85 31.07 20.61 31.45 20.61C31.65 20.61 31.72 20.51 31.72 20.25C31.72 19.62 31.09 19.87 30.26 20.81C29.96 21.13 29.68 21.36 29.61 21.3C29.55 21.23 29.62 21.06 29.77 20.9C29.9 20.75 29.98 20.52 29.93 20.39C29.88 20.26 29.9 20.19 29.96 20.23C30.01 20.26 30.17 20.22 30.3 20.12C30.51 19.97 30.54 19.81 30.45 19.3C30.44 19.26 30.41 19.05 30.35 18.68C30.1 18.97 29.97 19.13 29.94 19.16C29.68 19.46 29.55 19.77 29.58 20.01C29.62 20.33 29.56 20.39 29.26 20.39C29.06 20.39 28.81 20.45 28.7 20.52C28.54 20.62 28.51 20.55 28.59 20.12C28.71 19.54 28.51 19.41 28.25 19.88C28.14 20.07 27.94 20.17 27.67 20.17C27.36 20.17 27.23 20.26 27.16 20.51C27.1 20.68 26.94 20.96 26.8 21.12C26.54 21.39 25.93 22.78 25.93 23.07C25.93 23.16 26.06 23.22 26.2 23.22C26.36 23.22 26.54 23.29 26.58 23.36C26.62 23.45 26.78 23.51 26.93 23.51C27.12 23.51 27.3 23.17 27.68 22.17C27.96 21.45 28.26 20.83 28.35 20.78C28.46 20.75 28.39 21.1 28.16 21.72C27.96 22.26 27.71 23 27.61 23.36C27.52 23.72 27.36 24.16 27.28 24.32C27.09 24.65 27 24.59 28.38 25.11C28.84 25.29 29.12 25.2 29.12 24.88C29.12 24.65 30.1 23.16 30.32 23.09C30.39 23.06 30.22 23.48 29.91 24.01C29.38 25 29.12 26.16 29.46 26.09C29.75 26.04 30.62 26.29 30.83 26.49C31 26.67 31 26.74 30.84 26.95C30.74 27.09 30.62 27.23 30.61 27.26C30.58 27.3 30.46 27.19 30.33 27.01C30.03 26.58 29.75 26.77 30.04 27.22C30.36 27.69 30.33 27.93 29.91 28.14C29.52 28.35 29.54 28.71 29.93 29.45C30.04 29.65 30.32 30.33 30.54 30.97C30.83 31.77 31.06 32.17 31.27 32.27C31.43 32.35 31.58 32.52 31.58 32.65C31.58 32.92 32.84 34.24 33.91 35.1C34.45 35.52 34.71 35.65 34.82 35.53C34.94 35.42 34.78 35.21 34.3 34.81C33.87 34.43 33.59 34.06 33.54 33.75ZM12.21 34.48C11.97 34.42 11.97 34.4 12.22 34.3C12.44 34.21 12.55 34.26 12.71 34.49C12.96 34.87 13.21 34.9 13.68 34.58C13.89 34.45 14.13 34.37 14.25 34.42C14.6 34.55 14.64 34.33 14.31 34.17C13.86 33.95 13.78 33.5 14.18 33.4C14.55 33.3 14.58 33.07 14.22 33.07C13.89 33.07 13.32 32.55 13.32 32.24C13.32 32.11 13.28 32.06 13.22 32.11C13.15 32.17 13.1 32.37 13.1 32.53C13.1 32.85 13.03 32.88 12.52 32.72C12.28 32.65 12.19 32.72 12.09 33.1C11.93 33.65 11.54 33.74 11.47 33.26C11.41 32.87 11.22 32.82 11.09 33.16C10.96 33.52 11.29 34.69 11.52 34.61C11.63 34.56 11.79 34.63 11.87 34.75C12.1 35.01 12.45 35.01 12.45 34.75C12.45 34.63 12.34 34.52 12.21 34.48ZM25.58 32.52C25.45 31.95 25.35 31.32 25.35 31.11C25.35 30.88 25.29 30.77 25.19 30.84C25.09 30.9 25.06 31.42 25.12 32.4C25.16 33.2 25.19 33.95 25.2 34.06C25.2 34.34 25.49 34.24 25.65 33.88C25.77 33.62 25.75 33.29 25.58 32.52ZM26.87 32.49C26.99 32.49 27.17 32.3 27.3 32.06C27.42 31.82 27.67 31.55 27.83 31.46C28.1 31.32 28.13 31.22 28.06 30.56C28 30.11 28.03 29.75 28.13 29.64C28.41 29.3 28.13 29.26 27.72 29.58C27.32 29.9 27.06 29.85 27.1 29.48C27.14 29.01 27.09 28.97 26.8 29.23C26.45 29.53 26.43 29.85 26.71 30.26C26.96 30.59 26.87 31.13 26.58 31.24C26.46 31.29 26.33 31.19 26.28 31.01C26.19 30.71 26.17 30.71 26.03 30.98C25.84 31.3 25.8 32.16 25.94 32.56C26 32.72 26.09 32.97 26.13 33.11C26.25 33.49 26.57 33.35 26.62 32.88C26.65 32.66 26.77 32.49 26.87 32.49ZM14.13 32.33C14.07 32.42 14.07 32.56 14.12 32.64C14.22 32.81 14.48 32.82 14.48 32.68C14.47 32.42 14.22 32.17 14.13 32.33ZM14.9 30.59C14.61 30.45 14.54 30.48 14.29 30.77C14.02 31.1 14.02 31.11 14.42 31.42C14.71 31.66 14.83 31.88 14.83 32.26C14.86 33.16 15.13 32.72 15.18 31.72C15.22 30.87 15.19 30.75 14.9 30.59ZM12.94 31.49C12.92 31.46 12.74 31.53 12.57 31.65C11.87 32.1 11.15 32.06 10.83 31.56C10.77 31.48 10.71 31.61 10.71 31.85C10.71 32.1 10.76 32.35 10.81 32.39C10.97 32.56 11.52 32.5 12.1 32.26C12.61 32.04 13.09 31.62 12.94 31.49ZM18.32 31.85C18.1 31.78 18.03 31.93 18.2 32.1C18.33 32.24 18.54 32.23 18.54 32.07C18.54 32 18.44 31.91 18.32 31.85ZM24.04 31.43C24.04 31.66 24.29 32.06 24.42 32.06C24.45 32.06 24.44 31.88 24.42 31.66C24.36 31.22 24.04 31.01 24.04 31.43ZM29.67 29.72C29.59 29.68 29.55 29.55 29.56 29.43C29.62 29.17 28.93 28.04 28.85 28.27C28.83 28.36 28.88 28.53 28.97 28.65C29.23 28.97 29.01 29.58 28.59 29.75C28.26 29.87 28.22 29.95 28.3 30.33C28.35 30.59 28.39 30.87 28.39 30.97C28.39 31.07 28.61 31.23 28.87 31.35C29.12 31.45 29.36 31.56 29.41 31.62C29.48 31.69 30.25 32.01 30.46 32.04C30.52 32.06 30.56 32 30.56 31.93C30.56 31.66 29.81 29.81 29.67 29.72ZM13.19 31.06C13.54 31.19 13.67 31.19 13.8 31.06C13.93 30.91 13.87 30.79 13.54 30.51C13.31 30.29 13.12 30.04 13.15 29.93C13.18 29.82 13.12 29.74 13.02 29.74C12.92 29.74 12.89 29.87 12.94 30.1C13.02 30.36 12.97 30.46 12.83 30.46C12.73 30.46 12.45 30.69 12.25 30.97C12.03 31.24 11.93 31.48 12 31.48C12.09 31.48 12.16 31.42 12.16 31.33C12.16 31.03 12.76 30.87 13.19 31.06ZM19.33 30.64C19.61 30.51 19.8 30.52 20.2 30.69C20.65 30.87 20.71 30.87 20.71 30.69C20.71 30.58 20.88 30.39 21.12 30.29C21.35 30.17 21.51 29.98 21.51 29.81C21.51 29.65 21.61 29.52 21.73 29.52C21.86 29.52 21.94 29.65 21.94 29.88C21.94 30.33 22.13 30.64 22.32 30.52C22.41 30.46 22.41 30.36 22.31 30.24C22.19 30.11 22.19 30.03 22.31 29.95C22.39 29.91 22.42 29.79 22.36 29.72C22.32 29.65 22.38 29.39 22.51 29.16C22.62 28.91 22.65 28.72 22.59 28.72C22.52 28.72 22.33 28.58 22.17 28.4C21.88 28.1 21.87 28.1 21.58 28.36C21.33 28.58 21.23 28.59 20.93 28.46C20.49 28.26 20.46 28.4 20.84 29.03C21.07 29.39 21.09 29.55 20.97 29.82C20.73 30.36 20.31 30.24 20.42 29.66C20.44 29.59 20.32 29.64 20.16 29.78C19.81 30.1 19.46 30.1 19.28 29.78C19.15 29.53 19.12 29.53 18.84 29.82C18.82 29.85 18.73 29.95 18.55 30.14C18.73 30.19 18.84 30.22 18.86 30.23C19.16 30.3 19.16 30.32 18.93 30.58C18.65 30.88 18.61 31.04 18.83 31.04C18.91 31.04 18.97 30.98 18.97 30.93C18.97 30.85 19.13 30.72 19.33 30.64ZM11.19 30.35C10.87 30.16 11.06 29.74 11.47 29.74C11.65 29.74 11.89 29.61 11.99 29.45C12.09 29.29 12.26 29.16 12.38 29.16C12.48 29.16 12.68 29.01 12.8 28.84C13 28.56 13.03 28.56 13.12 28.77C13.23 29.08 13.49 29.08 13.44 28.77C13.38 28.45 12.92 28.4 12.44 28.68C12.07 28.9 12.03 28.9 11.74 28.62C11.44 28.35 11.44 28.33 11.71 28.09C11.9 27.93 12.1 27.87 12.29 27.93C12.47 27.98 12.6 27.95 12.6 27.87C12.6 27.66 12.05 27.38 11.81 27.46C11.73 27.51 11.57 27.38 11.48 27.19C11.35 26.9 11.36 26.84 11.55 26.84C11.89 26.84 12.89 27.56 12.89 27.8C12.89 28.03 13.26 28.07 13.38 27.87C13.48 27.71 14.41 27.9 14.68 28.13C14.9 28.32 15.06 28.2 15.06 27.82C15.06 27.68 14.96 27.56 14.84 27.56C14.73 27.56 14.63 27.46 14.63 27.32C14.63 27.1 14.6 27.11 14.34 27.35C14.19 27.48 13.96 27.56 13.83 27.52C13.55 27.4 13.54 26.98 13.81 26.98C13.94 26.98 13.99 26.88 13.94 26.71C13.9 26.56 13.94 26.39 14.03 26.35C14.12 26.29 14.22 26.4 14.28 26.62C14.36 26.98 14.63 27.13 14.63 26.82C14.63 26.74 14.8 26.68 15.03 26.69C15.7 26.74 15.73 26.72 15.67 26.11C15.61 25.52 15.73 25.39 16.05 25.71C16.19 25.85 16.26 25.85 16.36 25.68C16.44 25.56 16.51 25.36 16.51 25.23C16.51 24.88 16.84 24.67 17.2 24.77C17.57 24.85 17.64 25.25 17.31 25.25C17.18 25.25 17.09 25.38 17.09 25.61C17.09 25.91 17 25.98 16.54 26.06C16.05 26.13 15.99 26.19 16.05 26.49C16.09 26.77 16.19 26.82 16.54 26.8C16.94 26.77 17.05 26.84 17.33 27.4C17.35 27.42 17.57 27.35 17.83 27.22C18.09 27.09 18.38 26.98 18.49 26.98C18.6 26.98 18.68 26.91 18.68 26.82C18.68 26.59 18.02 26 17.78 26.03C17.44 26.06 17.45 25.75 17.78 25.71C18 25.68 18.26 25.78 18.48 25.98C18.67 26.16 18.83 26.24 18.83 26.16C18.83 26.09 18.7 25.9 18.54 25.75C18.18 25.42 18.18 25.14 18.54 25.03C18.7 24.98 18.83 24.84 18.83 24.72C18.83 24.61 18.89 24.52 18.97 24.52C19.19 24.52 19.32 25.25 19.15 25.42C19.02 25.55 19.03 25.64 19.15 25.8C19.44 26.13 19.46 27.13 19.19 27.33C19.06 27.42 18.94 27.64 18.93 27.81C18.93 27.98 18.87 28.1 18.8 28.06C18.74 28.03 18.62 28.13 18.54 28.29C18.42 28.51 18.42 28.58 18.57 28.59C19.02 28.62 19.31 28.72 19.54 28.93C19.73 29.1 20.42 29.2 20.42 29.06C20.42 28.87 20 28.17 19.8 28.03C19.6 27.87 19.57 27.72 19.64 27.3C19.68 27.01 19.78 26.71 19.84 26.65C20.03 26.43 20.39 26.71 20.48 27.13C20.52 27.4 20.62 27.53 20.75 27.48C20.88 27.43 20.93 27.17 20.9 26.62C20.87 26.01 20.91 25.85 21.06 25.91C21.31 26 21.42 27.04 21.25 27.36C21.1 27.62 21.22 27.78 21.7 27.93C21.97 28 22.03 27.95 22.12 27.56C22.19 27.14 22.25 27.1 22.68 27.16C23.02 27.2 23.17 27.16 23.17 27.03C23.17 26.93 23.32 26.84 23.48 26.84C23.73 26.84 23.75 26.88 23.62 27.04C23.49 27.19 23.49 27.27 23.61 27.35C23.7 27.4 23.78 27.42 23.8 27.4C24.2 26.64 24.42 26.53 24.61 27.01C24.7 27.19 24.75 27.27 24.75 27.19C24.77 27.09 24.93 26.97 25.13 26.93C25.67 26.8 25.45 26.58 24.65 26.46C23.83 26.35 23.51 26.1 23.32 25.4C23.15 24.75 23.35 24.53 23.71 25C23.86 25.2 24.12 25.39 24.28 25.42C24.45 25.45 24.54 25.56 24.51 25.75C24.46 25.98 24.49 26.01 24.64 25.87C24.93 25.58 25.35 25.64 25.35 25.96C25.35 26.26 25.67 26.43 26 26.32C26.17 26.24 26.2 26.32 26.13 26.64C25.99 27.38 26 27.61 26.19 27.66C26.28 27.71 26.36 27.64 26.36 27.51C26.36 27.39 26.46 27.23 26.59 27.16C26.86 27.01 27.67 27.11 27.67 27.29C27.67 27.36 27.81 27.42 28 27.42C28.29 27.4 28.29 27.39 28.06 27.26C27.84 27.13 27.83 27.07 27.97 26.88C28.13 26.69 28.12 26.68 27.88 26.71C27.39 26.78 26.97 26.55 26.87 26.14C26.81 25.91 26.84 25.74 26.93 25.71C27.01 25.68 27.06 25.59 27 25.52C26.96 25.45 26.75 25.48 26.52 25.61C25.94 25.9 25.32 25.71 25.13 25.17C25.01 24.84 25.03 24.74 25.29 24.56C25.62 24.35 25.62 23.61 25.28 23.74C25.17 23.78 25 23.72 24.88 23.61C24.78 23.49 24.49 23.39 24.26 23.39C23.23 23.38 22.9 23.2 22.52 22.52C21.87 21.35 22.22 19.93 23.03 20.43C23.28 20.58 23.33 20.58 23.41 20.39C23.46 20.27 23.65 20.17 23.86 20.17C24.38 20.17 24.28 19.54 23.74 19.48C23.28 19.42 22.77 18.93 22.97 18.74C23.04 18.67 23.3 18.58 23.54 18.55C23.86 18.52 23.99 18.42 24.01 18.19C24.06 17.93 24.16 17.85 24.49 17.85C24.72 17.85 24.91 17.78 24.91 17.68C24.91 17.59 25.04 17.64 25.22 17.8C25.68 18.22 28.39 18.81 27.99 18.41C27.77 18.19 27.75 17.71 27.96 17.71C28.26 17.71 28.09 17.42 27.74 17.33C27.19 17.2 27.29 16.74 27.84 16.83C27.91 16.83 27.96 16.77 27.96 16.68C27.96 16.59 28.06 16.55 28.17 16.59C28.29 16.65 28.42 16.62 28.46 16.55C28.52 16.46 28.72 16.41 28.94 16.41C29.16 16.41 29.49 16.28 29.7 16.12C30.16 15.75 30.23 15.75 30.33 16.17C30.39 16.43 30.49 16.49 30.77 16.45C30.96 16.41 31.16 16.45 31.2 16.54C31.26 16.62 31.4 16.7 31.52 16.7C31.64 16.7 32.01 16.83 32.33 16.99C32.67 17.14 33.07 17.28 33.22 17.28C33.49 17.28 33.49 17.26 33.27 17.01C33.13 16.87 33.03 16.57 33.03 16.35C33.03 15.87 32.71 15.51 32.39 15.62C32.26 15.67 32.16 15.64 32.16 15.55C32.16 15.46 32.04 15.39 31.88 15.39C31.74 15.39 31.58 15.28 31.55 15.13C31.49 14.91 31.38 14.87 31.01 14.93C30.77 14.96 30.56 14.93 30.56 14.84C30.56 14.62 31.22 14.51 31.9 14.61C32.46 14.7 32.51 14.68 32.3 14.48C32.16 14.32 31.62 14.2 30.71 14.1C29.52 13.99 29.3 14 29.16 14.19C29.03 14.36 28.78 14.39 28.07 14.35C27.33 14.29 26.93 14.36 25.96 14.7C24.49 15.19 24.23 15.32 23.68 15.83C23.45 16.04 22.93 16.33 22.55 16.48C22.1 16.65 21.33 17.2 20.36 18.06C19.54 18.78 18.67 19.48 18.44 19.61C18.19 19.74 17.62 20.33 17.16 20.91C15.68 22.8 14.02 24.29 12.54 25.06C11.81 25.43 11.05 25.81 10.83 25.87C10.8 25.88 10.67 25.91 10.42 25.98C10.42 26.92 10.42 27.44 10.42 27.55C10.42 28.4 10.47 29.52 10.51 30.01C10.6 30.77 10.65 30.9 10.84 30.81C10.97 30.77 11.16 30.71 11.26 30.71C11.51 30.69 11.48 30.51 11.19 30.35ZM24.55 30.17C24.8 30.17 24.67 29.64 24.39 29.53C24.28 29.49 24.19 29.55 24.19 29.65C24.19 29.75 24.06 30.01 23.9 30.2C23.75 30.4 23.67 30.61 23.71 30.66C23.9 30.85 24.22 30.74 24.29 30.46C24.33 30.3 24.45 30.17 24.55 30.17ZM23.16 30.03C23.25 30.03 23.28 29.94 23.23 29.84C23.19 29.72 23.33 29.56 23.57 29.45C23.59 29.43 23.73 29.37 23.97 29.26C23.75 29.2 23.63 29.16 23.61 29.16C23.35 29.1 23.23 29.13 23.2 29.29C23.17 29.42 23.06 29.59 22.96 29.68C22.74 29.84 22.83 30.52 23.04 30.37C23.12 30.33 23.15 30.23 23.1 30.16C23.04 30.08 23.07 30.03 23.16 30.03ZM14.99 29.35C15.03 29.9 15.03 29.88 15.18 29.88C15.23 29.88 15.26 29.65 15.23 29.37C15.16 28.74 14.93 28.71 14.99 29.35ZM26.04 28.87C26.03 28.24 25.83 28.33 25.75 29C25.7 29.71 25.74 29.88 26.03 29.88C26.17 29.88 26.2 29.79 26.14 29.59C26.1 29.43 26.04 29.11 26.04 28.87ZM25.46 27.95C25.61 27.78 25.61 27.72 25.43 27.66C25.3 27.61 25.17 27.64 25.13 27.71C25 27.91 24.91 29.33 25.01 29.49C25.13 29.68 25.17 29.56 25.23 28.84C25.26 28.48 25.38 28.07 25.46 27.95ZM16.91 28.27C16.64 28.51 16.62 28.58 16.78 28.78C16.89 28.91 17.06 29.01 17.16 29.01C17.26 29.01 17.39 29.13 17.44 29.26C17.6 29.68 17.81 29.26 17.73 28.69C17.61 28.06 17.36 27.93 16.91 28.27ZM24.19 28.8C24.06 28.88 24.06 28.93 24.2 29.03C24.45 29.17 24.7 29.03 24.51 28.84C24.42 28.75 24.28 28.74 24.19 28.8ZM16.05 28.17C15.78 28.26 15.74 28.58 15.99 28.58C16.12 28.58 16.22 28.48 16.22 28.35C16.22 28.22 16.15 28.14 16.05 28.17ZM27.84 28.23C27.74 28.24 27.54 28.26 27.36 28.27C26.91 28.3 27.19 28.58 27.68 28.58C27.97 28.58 28.1 28.52 28.07 28.4C28.03 28.3 27.93 28.22 27.84 28.23ZM22.59 27.56C22.52 27.56 22.45 27.71 22.45 27.9C22.45 28.16 22.48 28.17 22.59 28C22.67 27.88 22.74 27.74 22.74 27.68C22.74 27.61 22.68 27.56 22.59 27.56ZM28.19 25.69C27.96 25.51 27.72 25.72 27.88 25.97C28 26.14 28.2 26.16 28.3 25.98C28.35 25.91 28.29 25.78 28.19 25.69ZM39.36 25.62C39.17 25.36 39.16 25.36 39.16 25.62C39.16 25.78 39.23 25.94 39.32 26C39.52 26.14 39.55 26.14 39.55 26C39.55 25.93 39.46 25.77 39.36 25.62ZM25.71 24.94C25.81 24.8 25.59 24.75 25.45 24.91C25.3 25.04 25.64 25.39 25.91 25.39C26.12 25.38 26.12 25.36 25.88 25.23C25.75 25.14 25.67 25.03 25.71 24.94ZM26.59 24.38C26.46 24.38 26.36 24.48 26.36 24.59C26.36 24.71 26.39 24.81 26.42 24.81C26.45 24.81 26.55 24.71 26.65 24.59C26.8 24.42 26.8 24.38 26.59 24.38ZM37.01 24.09C36.8 24.09 36.71 24.53 36.9 24.72C37 24.81 37.19 24.48 37.22 24.2C37.23 24.13 37.13 24.09 37.01 24.09ZM39.98 23.94C39.98 23.59 39.85 23.56 39.62 23.9C39.39 24.2 38.94 24.04 39.07 23.71C39.14 23.51 39.1 23.48 38.85 23.54C38.65 23.59 38.53 23.56 38.53 23.43C38.53 23.14 38.88 22.93 39.11 23.07C39.23 23.16 39.43 23.2 39.55 23.2C39.69 23.2 39.71 23.17 39.59 23.11C39.27 23 39.39 22.49 39.77 22.32C40.04 22.19 40.17 22.19 40.3 22.32C40.4 22.42 40.56 22.49 40.68 22.49C40.85 22.49 40.85 22.45 40.71 22.27C40.61 22.16 40.56 21.96 40.62 21.84C40.71 21.59 40.49 21.54 40.33 21.78C40.27 21.88 40.04 21.9 39.71 21.84C39.29 21.77 39.22 21.78 39.37 21.93C39.52 22.09 39.46 22.2 39.1 22.52C38.58 23 38.24 23.04 38.24 22.64C38.24 22.25 38.01 22.27 37.88 22.68C37.74 23.16 37.71 23.64 37.84 23.56C37.91 23.52 38.01 23.64 38.09 23.82C38.24 24.26 38.62 24.58 38.82 24.45C38.91 24.39 38.97 24.4 38.95 24.48C38.88 24.91 39.29 24.93 39.69 24.52C39.85 24.36 39.98 24.1 39.98 23.94ZM36.36 24.01C36.49 23.94 36.94 23.1 36.94 22.94C36.94 22.9 36.87 22.94 36.77 23.04C36.66 23.14 36.48 23.22 36.33 23.22C36.19 23.22 36.07 23.27 36.07 23.35C36.07 23.42 35.94 23.54 35.78 23.58C35.4 23.69 35.4 23.94 35.78 24.04C36.01 24.1 36.04 24.16 35.91 24.32C35.78 24.48 35.81 24.52 36.07 24.52C36.29 24.52 36.36 24.46 36.32 24.3C36.26 24.19 36.29 24.06 36.36 24.01ZM26.23 21.55C26.46 21 26.65 20.49 26.65 20.43C26.65 20.17 26.39 20.35 26.23 20.7C26.1 21 26 21.06 25.7 20.98C25.26 20.87 24.96 21.17 24.41 22.23C24.38 22.28 24.26 22.5 24.04 22.91C24.37 22.95 24.56 22.97 24.59 22.97C24.88 23 25.25 23.03 25.39 23.04C25.54 23.06 25.68 22.96 25.72 22.83C25.77 22.68 26 22.12 26.23 21.55ZM24.15 21.48C23.91 21.48 23.87 21.04 24.09 20.78C24.16 20.68 24.19 20.56 24.15 20.52C24.01 20.38 23.75 20.61 23.75 20.85C23.75 20.98 23.65 21.22 23.52 21.35C23.33 21.55 23.22 21.58 23 21.46C22.78 21.35 22.75 21.27 22.88 21.12C23.12 20.83 22.93 20.54 22.65 20.77C22.32 21.04 22.41 21.9 22.83 22.45C23.3 23.07 23.62 23.06 24.01 22.36C24.38 21.71 24.42 21.48 24.15 21.48ZM34.62 22.27C34.3 22.38 34.29 22.35 34.42 22C34.53 21.71 35.04 21.69 35.14 21.97C35.27 22.29 35.78 22.07 35.78 21.69C35.78 21.51 35.87 21.32 35.97 21.29C36.06 21.25 35.94 21.25 35.69 21.29C35.39 21.33 35.2 21.29 35.04 21.1C34.88 20.91 34.88 20.84 35.03 20.8C35.11 20.75 35.2 20.65 35.2 20.55C35.2 20.25 34.59 20.04 33.75 20.07C33.32 20.1 32.84 20.04 32.71 19.97C32.42 19.8 32.25 19.93 32.1 20.41C32.01 20.67 32.06 20.71 32.36 20.65C32.55 20.61 32.75 20.65 32.81 20.75C32.88 20.87 32.98 20.84 33.19 20.67C33.45 20.43 33.48 20.43 33.82 20.75C34.03 20.94 34.19 21.25 34.19 21.43C34.19 21.71 34.11 21.77 33.74 21.77C33.71 21.77 33.56 21.77 33.29 21.77C33.65 22.12 33.86 22.31 33.9 22.35C34.46 22.9 34.52 22.91 34.71 22.68C34.81 22.54 34.91 22.36 34.91 22.3C34.91 22.23 34.78 22.23 34.62 22.27ZM37.75 22.06C38.06 22.06 38.1 22.01 37.97 21.85C37.88 21.75 37.84 21.56 37.88 21.45C37.94 21.32 37.87 21.19 37.75 21.14C37.58 21.07 37.52 21.14 37.52 21.38C37.52 21.71 37.27 22.06 37.06 22.06C37 22.06 36.94 21.96 36.94 21.84C36.94 21.62 36.77 21.55 36.61 21.71C36.49 21.83 37.06 22.64 37.24 22.64C37.32 22.64 37.37 22.51 37.37 22.35C37.37 22.13 37.48 22.06 37.75 22.06ZM35.93 22.35C35.75 22.46 35.77 22.49 36.04 22.49C36.22 22.49 36.36 22.43 36.36 22.35C36.36 22.16 36.2 22.16 35.93 22.35ZM38.91 21.41C38.8 21.07 38.97 20.75 39.29 20.75C39.59 20.75 40.03 20.41 39.88 20.26C39.82 20.22 39.64 20.17 39.45 20.17C39.26 20.17 38.93 20.09 38.69 19.97C38.4 19.81 38.14 19.8 37.75 19.88C37.07 20.03 36.4 19.84 35.95 19.35C35.65 19.01 35.65 18.99 35.88 18.65C36.03 18.45 36.23 18.29 36.35 18.29C36.9 18.28 36.11 18.07 35.29 18.01C35.23 18 35.2 17.87 35.24 17.71C35.35 17.3 35.1 17.2 34.91 17.57C34.8 17.78 34.8 18.01 34.93 18.43C35.09 18.94 35.07 19.04 34.82 19.32C34.61 19.58 34.59 19.65 34.75 19.71C34.87 19.75 35.1 19.93 35.27 20.12C35.43 20.29 35.75 20.49 35.97 20.54C36.19 20.59 36.36 20.7 36.36 20.77C36.36 20.83 36.49 20.96 36.66 21.04C36.9 21.17 37.01 21.16 37.23 20.97C37.46 20.75 37.56 20.75 38.01 20.91C38.52 21.1 38.71 21.49 38.39 21.69C38.32 21.74 38.24 21.87 38.24 21.96C38.24 22.06 38.35 22.01 38.45 21.88C38.55 21.74 38.72 21.62 38.82 21.62C38.93 21.62 38.97 21.52 38.91 21.41ZM33.29 21.16C33.16 21.29 33.19 21.33 33.46 21.33C33.74 21.33 33.77 21.29 33.64 21.16C33.51 21.03 33.42 21.03 33.29 21.16ZM40.27 20.75C40.2 20.75 40.13 20.88 40.13 21.04C40.13 21.2 40.2 21.33 40.27 21.33C40.36 21.33 40.42 21.2 40.42 21.04C40.42 20.88 40.36 20.75 40.27 20.75ZM27.64 19.07C27.51 18.94 26.99 19.52 26.87 19.91C26.78 20.23 26.78 20.23 27 19.96C27.12 19.8 27.33 19.55 27.46 19.42C27.61 19.27 27.68 19.12 27.64 19.07ZM33.88 18.91C33.54 19.13 33.16 18.83 33.43 18.55C33.67 18.32 33.65 18.06 33.38 17.78C33.16 17.57 33.11 17.57 32.85 17.8C32.59 18.04 32.58 18.04 32.49 17.74C32.39 17.35 32.22 17.33 32.01 17.71C31.78 18.16 31.39 17.91 31.52 17.39C31.61 16.96 31.61 16.96 31.32 17.25C31.16 17.41 31.04 17.7 31.04 17.9C31.04 18.25 31.09 18.26 31.64 18.25C32.19 18.22 32.23 18.25 32.27 18.62C32.3 18.88 32.39 19.01 32.51 18.97C32.61 18.93 32.69 18.99 32.69 19.09C32.69 19.19 32.62 19.26 32.54 19.26C32.45 19.26 32.14 19.27 31.87 19.29C31.83 19.29 31.67 19.3 31.36 19.32C31.65 19.44 31.81 19.51 31.84 19.52C32.2 19.68 32.4 19.7 32.62 19.58C32.78 19.49 33 19.46 33.11 19.51C33.23 19.55 33.32 19.52 33.32 19.45C33.32 19.36 33.23 19.3 33.14 19.3C33.01 19.3 33.03 19.26 33.17 19.17C33.45 18.99 33.61 19.12 33.61 19.54C33.61 19.84 33.64 19.87 33.88 19.71C34.04 19.62 34.19 19.39 34.23 19.2C34.3 18.78 34.22 18.7 33.88 18.91ZM25.04 18.94C24.91 19.03 24.94 19.12 25.15 19.26C25.45 19.48 25.64 19.25 25.38 18.99C25.29 18.9 25.15 18.88 25.04 18.94ZM29.25 18.46C29.16 18.49 29.1 18.56 29.1 18.62C29.12 18.68 29.12 18.83 29.12 18.94C29.12 19.06 29.19 19.16 29.26 19.16C29.35 19.16 29.41 18.99 29.41 18.78C29.41 18.58 29.33 18.43 29.25 18.46ZM33.91 17.94C34.06 18.33 34.27 18.58 34.51 18.58C34.56 18.58 34.51 18.38 34.36 18.12C34.01 17.51 33.69 17.38 33.91 17.94ZM30.01 18.16C29.97 18.25 30.03 18.3 30.13 18.28C30.22 18.23 30.29 18.16 30.29 18.1C30.27 17.93 30.07 17.97 30.01 18.16ZM28.54 17.74C28.71 17.88 29.03 18 29.23 18C29.61 18 29.61 18 29.13 17.65C28.55 17.22 28 17.3 28.54 17.74ZM30.54 16.97C29.87 16.81 29.62 16.9 29.58 17.3C29.54 17.68 29.55 17.7 30.01 17.62C30.27 17.57 30.58 17.42 30.68 17.29C30.84 17.09 30.83 17.04 30.54 16.97ZM34.52 16.78C34.64 16.9 35.78 16.97 36.11 16.88C36.48 16.78 36.16 16.41 35.71 16.41C35.51 16.41 35.22 16.22 35 15.97C34.65 15.55 33.61 14.97 33.22 14.96C33.11 14.96 33.03 15.09 33.03 15.25C33.03 15.41 33.11 15.52 33.22 15.51C33.3 15.48 33.38 15.55 33.35 15.65C33.32 15.8 33.38 15.8 33.62 15.67C33.87 15.54 33.98 15.55 34.16 15.74C34.38 15.96 34.38 15.97 34.09 15.97C33.93 15.97 33.68 16.13 33.56 16.32C33.35 16.65 33.35 16.68 33.65 16.9C34.06 17.17 34.19 17.19 34.19 16.91C34.19 16.7 34.36 16.62 34.52 16.78Z" id="dstXMAiY4"></path><path d="M-304.3 459.11C-304 458.01 -304.3 457.11 -304.9 457.11C-307 457.11 -306 454.31 -303.7 453.71C-300.2 452.81 -300 452.91 -300 456.51C-300 459.91 -301.6 462.11 -303.6 461.41C-304.3 461.21 -304.6 460.11 -304.3 459.11Z" id="bgcB5A7sn"></path><path d="M-316.8 454.31C-317.7 455.31 -318.4 455.11 -319.8 453.71C-321 452.31 -321.2 451.71 -320.2 451.41C-319.6 451.11 -319 450.31 -319 449.51C-319 447.71 -319.2 447.71 -314.3 450.11C-309.1 452.61 -308.4 453.71 -310.6 456.21C-313.1 459.01 -315.4 458.71 -314.6 455.61C-313.9 452.91 -314.9 452.41 -316.8 454.31Z" id="c1Ezux2iA0"></path><path d="M-309.6 446.61C-308.6 445.81 -308.2 444.71 -308.6 443.61C-309.4 441.61 -306.7 439.11 -303.8 439.11C-302.5 439.11 -302 439.91 -302 441.61C-302 443.01 -302.4 444.11 -303 444.11C-303.5 444.11 -304 444.91 -304 446.01C-304 447.01 -304.7 448.41 -305.5 449.11C-306.3 449.81 -307 450.01 -307 449.61C-307 449.21 -307.7 449.41 -308.5 450.11C-309.7 451.11 -310.1 451.01 -310.7 449.61C-311.1 448.51 -310.7 447.41 -309.6 446.61Z" id="cHF96xqrq"></path><path d="M-298.9 491.81C-297.3 491.41 -296.9 491.71 -297.2 493.41C-297.4 494.81 -298.1 495.51 -299.2 495.31C-300.4 495.11 -300.7 495.61 -300.3 497.11C-299.6 499.71 -300.6 499.71 -302 497.01C-303.3 494.61 -302.1 492.61 -298.9 491.81Z" id="b2TS94qamx"></path></defs><g><g><g><g><use xlink:href="#a6Bz6AN2W" opacity="1" fill="#ffffff" fill-opacity="1"></use><g><use xlink:href="#a6Bz6AN2W" opacity="1" fill-opacity="0" stroke="#000000" stroke-width="1" stroke-opacity="0"></use></g></g><g><use xlink:href="#azCU2zzaL" opacity="1" fill="#ffffff" fill-opacity="1"></use><g><use xlink:href="#azCU2zzaL" opacity="1" fill-opacity="0" stroke="#000000" stroke-width="1" stroke-opacity="0"></use></g></g><g><use xlink:href="#a3ob6PlvTk" opacity="1" fill="#ffffff" fill-opacity="1"></use><g><use xlink:href="#a3ob6PlvTk" opacity="1" fill-opacity="0" stroke="#000000" stroke-width="1" stroke-opacity="0"></use></g></g><g><use xlink:href="#c5E22TtZwo" opacity="1" fill="#ffffff" fill-opacity="1"></use><g><use xlink:href="#c5E22TtZwo" opacity="1" fill-opacity="0" stroke="#000000" stroke-width="1" stroke-opacity="0"></use></g></g><g><use xlink:href="#c3mRrD2zvY" opacity="1" fill="#ffffff" fill-opacity="1"></use><g><use xlink:href="#c3mRrD2zvY" opacity="1" fill-opacity="0" stroke="#000000" stroke-width="1" stroke-opacity="0"></use></g></g><g><use xlink:href="#b10dIcVWTZ" opacity="1" fill="#ffffff" fill-opacity="1"></use><g><use xlink:href="#b10dIcVWTZ" opacity="1" fill-opacity="0" stroke="#000000" stroke-width="1" stroke-opacity="0"></use></g></g><g><use xlink:href="#a6C8LGHUlf" opacity="1" fill="#ffffff" fill-opacity="1"></use><g><use xlink:href="#a6C8LGHUlf" opacity="1" fill-opacity="0" stroke="#000000" stroke-width="1" stroke-opacity="0"></use></g></g><g><use xlink:href="#gj1i2KA2L" opacity="1" fill="#ffffff" fill-opacity="1"></use><g><use xlink:href="#gj1i2KA2L" opacity="1" fill-opacity="0" stroke="#000000" stroke-width="1" stroke-opacity="0"></use></g></g><g><use xlink:href="#m2RuKwSFKB" opacity="1" fill="#ffffff" fill-opacity="1"></use><g><use xlink:href="#m2RuKwSFKB" opacity="1" fill-opacity="0" stroke="#000000" stroke-width="1" stroke-opacity="0"></use></g></g><g><use xlink:href="#j3VNzhP3Ej" opacity="1" fill="#ffffff" fill-opacity="1"></use><g><use xlink:href="#j3VNzhP3Ej" opacity="1" fill-opacity="0" stroke="#000000" stroke-width="1" stroke-opacity="0"></use></g></g><g><use xlink:href="#f1DDxkHOM" opacity="1" fill="#ffffff" fill-opacity="1"></use><g><use xlink:href="#f1DDxkHOM" opacity="1" fill-opacity="0" stroke="#000000" stroke-width="1" stroke-opacity="0"></use></g></g><g><use xlink:href="#a3LLitoB02" opacity="1" fill="#ffffff" fill-opacity="1"></use><g><use xlink:href="#a3LLitoB02" opacity="1" fill-opacity="0" stroke="#000000" stroke-width="1" stroke-opacity="0"></use></g></g><g><use xlink:href="#b28LwP3YXW" opacity="1" fill="#ffffff" fill-opacity="1"></use><g><use xlink:href="#b28LwP3YXW" opacity="1" fill-opacity="0" stroke="#000000" stroke-width="1" stroke-opacity="0"></use></g></g><g><use xlink:href="#bMQNG1AG" opacity="1" fill="#ffffff" fill-opacity="1"></use><g><use xlink:href="#bMQNG1AG" opacity="1" fill-opacity="0" stroke="#000000" stroke-width="1" stroke-opacity="0"></use></g></g><g><use xlink:href="#fgwyLK41a" opacity="1" fill="#ffffff" fill-opacity="1"></use><g><use xlink:href="#fgwyLK41a" opacity="1" fill-opacity="0" stroke="#000000" stroke-width="1" stroke-opacity="0"></use></g></g><g><use xlink:href="#a2uD2Eoefb" opacity="1" fill="#ffffff" fill-opacity="1"></use><g><use xlink:href="#a2uD2Eoefb" opacity="1" fill-opacity="0" stroke="#000000" stroke-width="1" stroke-opacity="0"></use></g></g></g><g><use xlink:href="#dstXMAiY4" opacity="1" fill="#ffffff" fill-opacity="1"></use><g><use xlink:href="#dstXMAiY4" opacity="1" fill-opacity="0" stroke="#000000" stroke-width="1" stroke-opacity="0"></use></g></g><g><use xlink:href="#bgcB5A7sn" opacity="1" fill="#ffffff" fill-opacity="1"></use><g><use xlink:href="#bgcB5A7sn" opacity="1" fill-opacity="0" stroke="#000000" stroke-width="1" stroke-opacity="0"></use></g></g><g><use xlink:href="#c1Ezux2iA0" opacity="1" fill="#ffffff" fill-opacity="1"></use><g><use xlink:href="#c1Ezux2iA0" opacity="1" fill-opacity="0" stroke="#000000" stroke-width="1" stroke-opacity="0"></use></g></g><g><use xlink:href="#cHF96xqrq" opacity="1" fill="#ffffff" fill-opacity="1"></use><g><use xlink:href="#cHF96xqrq" opacity="1" fill-opacity="0" stroke="#000000" stroke-width="1" stroke-opacity="0"></use></g></g><g><use xlink:href="#b2TS94qamx" opacity="1" fill="#ffffff" fill-opacity="1"></use><g><use xlink:href="#b2TS94qamx" opacity="1" fill-opacity="0" stroke="#000000" stroke-width="1" stroke-opacity="0"></use></g></g></g></g></svg>