<?xml version="1.0" standalone="no"?>
<!DOCTYPE svg PUBLIC "-//W3C//DTD SVG 20010904//EN"
 "http://www.w3.org/TR/2001/REC-SVG-20010904/DTD/svg10.dtd">
<svg version="1.0" xmlns="http://www.w3.org/2000/svg"
 width="885.000000pt" height="885.000000pt" viewBox="0 0 885.000000 885.000000"
 preserveAspectRatio="xMidYMid meet">
<metadata>
Created by potrace 1.14, written by Peter Selinger 2001-2017
</metadata>
<g transform="translate(0.000000,885.000000) scale(0.100000,-0.100000)"
fill="#000000" stroke="none">
<path d="M3125 7824 c-22 -8 -58 -23 -80 -34 -22 -10 -53 -22 -69 -26 -16 -4
-48 -17 -70 -30 -23 -13 -48 -24 -57 -24 -10 0 -43 -13 -74 -30 -31 -16 -65
-30 -74 -30 -10 0 -37 -10 -61 -21 -25 -12 -72 -24 -106 -27 -57 -4 -65 -2
-88 21 -14 14 -26 35 -26 46 0 30 -16 34 -57 12 -68 -36 -274 -203 -366 -295
-52 -52 -85 -73 -145 -92 -59 -18 -92 -17 -116 1 -11 8 -37 15 -58 15 -31 0
-47 -8 -85 -42 -51 -47 -142 -165 -211 -273 -51 -79 -82 -108 -129 -116 -37
-7 -81 17 -108 57 -13 20 -19 23 -31 13 -8 -6 -14 -24 -14 -40 0 -16 -9 -45
-20 -66 -10 -21 -24 -69 -30 -106 -8 -52 -20 -82 -50 -126 -44 -65 -252 -282
-287 -300 -53 -27 -107 -2 -117 54 -4 19 -11 35 -16 35 -20 0 -82 -65 -127
-133 -26 -40 -66 -92 -89 -117 -23 -25 -47 -63 -54 -85 -7 -22 -30 -66 -51
-97 -21 -31 -45 -72 -53 -91 -8 -19 -52 -73 -99 -120 -47 -47 -90 -94 -96
-105 -8 -15 -11 -748 -11 -2576 l0 -2556 4425 0 4425 0 0 1785 c0 1121 -4
1785 -9 1785 -6 0 -61 -53 -123 -117 -225 -235 -354 -351 -479 -435 -55 -36
-161 -110 -194 -136 -99 -76 -520 -289 -648 -328 -29 -9 -79 -26 -112 -39 -60
-23 -119 -39 -185 -50 -60 -10 -133 -27 -200 -47 -35 -10 -109 -23 -165 -28
-55 -6 -120 -15 -145 -20 -25 -5 -61 -12 -80 -16 -19 -3 -172 -8 -340 -11
-241 -4 -331 -1 -430 11 -174 22 -295 43 -360 61 -51 15 -156 40 -274 67 -93
20 -389 165 -506 247 -231 161 -370 293 -516 488 -63 83 -127 173 -143 200
-117 196 -120 202 -181 353 -56 140 -130 375 -130 415 0 17 -4 45 -9 63 -6 18
-13 83 -16 145 -3 62 -11 134 -17 162 -21 96 22 347 76 439 34 58 107 138 142
156 16 8 47 29 70 46 50 40 143 74 203 74 72 0 151 -30 198 -76 37 -35 43 -46
43 -83 0 -60 19 -61 87 -4 92 76 167 124 209 134 98 22 289 6 370 -32 49 -23
119 -112 134 -170 20 -74 61 -38 80 69 17 94 73 202 135 261 69 65 80 97 55
156 -22 51 -77 110 -140 150 -25 16 -55 38 -68 49 -18 16 -43 23 -100 27 -42
3 -125 20 -185 37 -59 18 -113 32 -119 32 -14 0 -137 72 -187 109 -18 14 -53
55 -77 92 -63 95 -59 156 13 231 l35 36 -61 71 c-33 39 -63 82 -67 96 -14 57
34 106 119 121 20 3 37 9 37 13 0 9 -53 58 -115 106 -27 21 -62 52 -78 69 -24
27 -27 36 -21 75 3 24 13 55 21 68 15 22 14 25 -3 39 -10 8 -43 27 -73 41 -47
23 -75 27 -205 35 -194 12 -276 36 -305 92 -11 20 -10 28 5 51 22 34 14 40
-78 55 -59 10 -76 9 -142 -9 -61 -17 -105 -21 -224 -21 l-148 0 -29 30 c-27
28 -27 30 -11 54 31 49 15 57 -59 30z m21 -177 c46 -31 177 -68 231 -66 56 2
127 18 170 40 20 10 53 19 72 19 44 0 96 -39 111 -84 6 -20 26 -44 49 -60 34
-24 53 -28 167 -36 151 -12 248 -31 283 -58 22 -16 26 -28 29 -81 3 -53 8 -69
37 -107 38 -50 42 -77 23 -148 -15 -55 2 -177 32 -235 l19 -39 -25 -62 c-31
-76 -27 -116 21 -199 76 -135 148 -206 270 -265 80 -39 286 -93 423 -111 52
-7 72 -19 147 -87 23 -22 29 -34 27 -64 -2 -20 -14 -51 -27 -69 -14 -17 -30
-46 -36 -63 -14 -40 -60 -56 -102 -35 -15 7 -66 27 -114 43 -78 27 -101 30
-209 30 l-120 0 -100 -50 c-113 -57 -130 -57 -190 -6 -22 18 -54 41 -72 51
-18 11 -51 47 -74 80 -49 72 -69 90 -128 116 -49 22 -165 49 -210 49 -48 0
-98 29 -105 62 -8 36 11 198 31 260 14 42 14 50 0 76 -16 31 -46 42 -120 42
-68 0 -95 25 -155 141 -57 112 -75 138 -153 226 -28 32 -79 102 -115 156 -57
86 -67 97 -93 97 -33 0 -58 -30 -70 -83 l-7 -32 -22 47 c-35 72 -58 83 -150
69 -42 -7 -89 -14 -104 -16 -16 -3 -42 -14 -58 -26 -26 -18 -29 -26 -29 -78 0
-32 10 -100 22 -152 36 -158 34 -253 -5 -220 -8 6 -18 24 -22 39 -4 15 -17 41
-29 57 -12 17 -30 48 -41 70 -45 98 -118 181 -195 220 -71 36 -103 33 -131
-11 -20 -33 -21 -44 -15 -129 8 -112 1 -123 -61 -95 -22 10 -44 23 -47 29 -10
15 -43 14 -104 -4 -66 -20 -98 -65 -101 -139 -1 -28 -4 -53 -7 -58 -3 -4 -24
-8 -47 -9 -75 -2 -91 -10 -98 -54 -4 -22 -12 -53 -18 -68 -6 -16 -11 -42 -11
-59 0 -33 -28 -88 -45 -88 -7 0 -22 11 -34 24 -12 13 -37 32 -56 41 -31 18
-35 18 -59 2 -26 -17 -26 -19 -26 -145 1 -77 6 -141 14 -163 31 -88 213 -279
315 -329 58 -30 69 -32 127 -26 68 7 135 -5 194 -34 39 -20 160 -138 160 -157
0 -6 -12 -15 -27 -20 -22 -8 -39 -3 -91 24 -64 34 -96 40 -121 24 -21 -14 -7
-61 39 -135 41 -64 83 -96 129 -96 11 0 55 -11 97 -25 78 -25 97 -25 167 1 59
22 115 21 138 -3 l20 -20 -20 -34 c-12 -19 -21 -47 -21 -62 0 -27 27 -86 40
-88 3 0 37 -1 75 -3 73 -3 93 -10 244 -93 36 -20 89 -50 116 -68 28 -18 63
-40 78 -49 28 -17 28 -18 10 -38 -10 -11 -35 -29 -57 -40 -44 -22 -104 -20
-155 6 -45 24 -93 20 -120 -8 -18 -20 -21 -30 -16 -62 4 -22 13 -48 20 -59 7
-11 16 -39 19 -61 6 -32 3 -45 -13 -65 l-19 -24 -29 28 c-36 33 -40 33 -65 2
-24 -31 -35 -31 -59 -1 -25 31 -83 42 -114 22 -34 -22 -50 -20 -63 8 -13 30
-61 66 -105 81 -35 12 -36 17 -14 87 l15 46 -65 54 c-52 43 -76 56 -130 68
l-66 15 -20 53 c-11 28 -25 52 -31 52 -6 0 -26 -13 -43 -29 -27 -25 -32 -37
-38 -97 -3 -38 -7 -78 -8 -89 -3 -28 -32 -30 -64 -6 -23 19 -29 20 -47 7 -18
-12 -21 -24 -21 -84 0 -39 -3 -73 -6 -77 -12 -11 -75 21 -97 50 -12 15 -22 40
-22 54 0 15 -12 40 -30 59 -24 27 -34 31 -57 26 -46 -11 -93 -62 -93 -101 0
-44 31 -104 78 -151 53 -53 176 -97 247 -88 102 13 100 13 97 -14 -2 -14 -6
-44 -9 -67 -5 -44 7 -71 62 -138 23 -28 28 -30 85 -27 49 3 60 0 60 -12 0 -23
-40 -66 -74 -80 -25 -10 -36 -9 -75 11 -55 27 -93 29 -126 7 -23 -15 -25 -22
-25 -95 0 -91 -6 -95 -76 -55 -60 34 -95 38 -130 16 -25 -17 -30 -29 -39 -87
-9 -60 -13 -69 -36 -77 -21 -7 -33 -4 -58 13 -35 25 -40 59 -20 150 9 42 8 60
-7 103 -9 29 -25 65 -36 80 -10 15 -24 43 -31 62 -14 40 -84 119 -101 113 -7
-2 -13 -50 -16 -133 -3 -71 -9 -135 -13 -142 -14 -20 -65 -42 -84 -35 -41 14
-44 23 -18 67 36 61 33 103 -12 165 -34 47 -41 51 -73 49 -38 -3 -34 2 -100
-140 -22 -48 -55 -102 -73 -120 -44 -44 -136 -105 -170 -112 -40 -9 -55 28
-39 91 7 24 17 104 23 176 10 112 16 145 47 221 33 84 34 90 19 115 -9 15 -33
32 -59 41 -23 8 -56 22 -73 31 -16 9 -48 20 -70 24 -22 3 -65 19 -95 34 -48
24 -55 31 -58 60 -2 18 3 42 11 54 7 12 21 42 31 66 15 39 15 45 1 67 -21 33
-62 31 -112 -5 -22 -16 -55 -37 -74 -46 -67 -34 -119 -98 -119 -147 0 -28 40
-110 94 -193 77 -119 73 -148 -18 -114 -75 27 -81 21 -81 -82 0 -76 -2 -82
-28 -105 -40 -34 -89 -33 -112 3 -19 28 -23 147 -18 548 0 72 0 252 -1 401
l-1 272 55 53 c32 32 73 88 99 134 48 88 218 347 250 382 18 18 25 20 53 12
51 -14 96 -11 164 12 57 19 75 33 178 138 125 125 177 200 207 298 11 34 26
69 34 77 8 8 52 27 97 42 57 19 92 37 112 58 43 46 108 134 146 198 19 32 56
79 82 105 l48 47 45 -22 c25 -12 57 -22 71 -22 34 0 112 40 193 98 36 27 84
59 106 72 22 13 79 61 127 107 48 46 93 83 100 84 34 3 66 -4 96 -22 39 -23
104 -25 140 -4 15 8 59 21 97 28 64 14 236 84 345 143 56 30 111 27 166 -9z
m-121 -3543 c42 -28 84 -47 140 -61 100 -25 376 -122 430 -151 88 -47 89 -49
96 -169 3 -59 10 -119 16 -133 17 -39 73 -85 137 -114 38 -18 86 -54 140 -104
103 -98 176 -154 298 -227 89 -53 97 -61 103 -94 9 -51 -8 -88 -47 -104 -31
-13 -35 -12 -68 13 -59 45 -129 82 -145 76 -14 -5 -14 -9 0 -37 9 -17 32 -44
50 -61 41 -35 70 -82 79 -124 6 -26 2 -36 -22 -61 -37 -37 -36 -79 4 -108 15
-11 59 -45 98 -75 39 -31 107 -78 150 -105 148 -93 206 -163 206 -249 0 -34
85 -120 135 -136 49 -16 218 -105 263 -137 17 -13 32 -31 32 -40 0 -13 -9 -15
-61 -9 -34 3 -67 10 -73 15 -6 4 -65 30 -131 56 -66 26 -153 63 -193 81 -40
19 -85 37 -100 40 -15 4 -47 17 -72 30 -25 13 -57 24 -72 24 -15 0 -51 9 -80
20 -29 12 -91 28 -137 36 -47 8 -96 21 -111 29 -14 7 -55 19 -90 26 -36 6 -97
20 -136 30 -57 16 -81 17 -123 9 -29 -5 -57 -12 -62 -15 -5 -4 -26 7 -46 23
-55 43 -89 46 -114 10 -18 -25 -19 -34 -10 -76 12 -54 32 -179 38 -237 4 -37
20 -93 74 -262 26 -81 100 -221 163 -308 156 -216 441 -439 671 -524 44 -16
103 -39 130 -51 75 -33 247 -70 365 -80 58 -5 137 -14 175 -20 92 -15 582 -15
710 -1 55 7 156 16 225 21 190 15 398 45 475 70 17 6 100 28 185 51 85 22 175
49 200 59 25 10 63 22 85 28 22 6 90 29 150 52 61 23 130 49 155 59 25 9 61
25 80 36 19 10 49 25 65 31 97 39 180 76 203 92 33 23 185 92 202 92 18 0 80
37 230 135 69 46 143 92 165 104 22 12 63 37 90 56 28 19 81 56 118 82 37 26
82 63 100 81 35 36 116 77 128 65 4 -5 9 -35 10 -68 2 -44 -2 -67 -14 -87 -10
-14 -71 -61 -135 -103 -64 -43 -129 -86 -144 -96 -15 -11 -30 -19 -33 -19 -3
0 -34 -18 -69 -40 -35 -22 -107 -58 -159 -80 -53 -22 -111 -50 -129 -61 -18
-11 -78 -48 -133 -82 -219 -134 -385 -265 -385 -303 0 -6 6 -22 12 -37 10 -21
22 -28 56 -33 49 -7 257 10 372 32 41 7 125 21 185 30 61 8 146 24 190 34 44
10 109 21 145 25 35 3 80 13 98 21 48 20 102 18 118 -4 10 -12 13 -56 14 -154
0 -136 0 -137 -27 -158 -15 -11 -33 -18 -41 -15 -12 4 -803 6 -3292 4 -586 0
-713 3 -755 15 -72 21 -168 55 -261 93 -45 18 -87 33 -94 33 -23 0 -135 59
-165 87 -16 16 -97 90 -180 165 -82 75 -188 173 -235 218 -47 45 -110 102
-141 126 -59 45 -75 54 -304 176 -185 97 -229 128 -248 175 -28 67 -49 86 -85
78 -18 -3 -32 -10 -32 -14 0 -3 -27 -49 -61 -101 -72 -112 -73 -123 -6 -233
24 -39 65 -110 90 -157 25 -47 60 -104 79 -128 18 -23 114 -100 213 -171 99
-71 207 -150 240 -174 33 -25 90 -61 126 -81 72 -39 115 -79 104 -95 -11 -19
-425 -14 -492 5 -48 14 -66 14 -134 4 -43 -7 -149 -13 -236 -14 -149 -1 -160
0 -199 22 -68 40 -77 91 -44 257 24 116 25 257 3 322 -8 24 -29 55 -46 69 -41
35 -149 84 -184 84 -79 0 -151 -43 -177 -105 -7 -16 -16 -84 -19 -150 -7 -143
-8 -148 -42 -214 -56 -112 -137 -170 -189 -135 -15 9 -26 19 -26 23 0 3 16 33
35 66 60 103 85 160 89 208 4 39 0 52 -24 86 -52 71 -124 91 -182 50 -36 -26
-90 -39 -111 -27 -14 7 -14 13 -1 60 19 64 12 110 -24 144 -32 31 -175 100
-226 109 -20 4 -39 11 -42 16 -2 5 -27 15 -54 23 -47 14 -52 14 -122 -13 -40
-16 -116 -55 -168 -88 -129 -80 -228 -130 -270 -137 -28 -5 -40 -1 -60 16 -46
42 -80 94 -80 125 0 34 30 52 132 78 35 9 77 25 93 35 47 29 94 83 105 121 6
18 10 108 10 199 0 156 -1 167 -23 193 -19 25 -25 27 -49 18 -40 -15 -76 -79
-85 -152 -7 -58 -10 -63 -38 -71 -17 -4 -42 -4 -58 2 -21 7 -36 6 -57 -5 -40
-21 -43 -28 -49 -129 -6 -89 -6 -90 -36 -98 -28 -7 -36 -2 -120 81 -98 97
-136 121 -189 121 -28 0 -40 7 -58 30 -25 35 -24 10 -33 466 l-7 291 35 30
c26 23 52 33 103 42 38 7 83 17 99 22 81 23 255 39 460 40 276 2 354 10 409
45 91 57 213 127 241 138 33 12 133 66 257 138 48 28 101 50 127 54 25 4 63
15 84 26 21 10 68 28 105 39 126 39 133 45 437 392 204 234 214 246 225 289 6
24 21 70 33 103 19 50 30 64 71 89 46 29 120 48 141 37 6 -3 37 -24 70 -47z
m5668 -736 l27 -13 0 -171 0 -170 -32 -31 c-42 -39 -109 -73 -146 -73 -16 0
-37 9 -47 20 -11 12 -35 28 -54 37 -33 16 -35 16 -45 -2 -6 -10 -28 -38 -50
-62 -52 -58 -92 -69 -206 -57 -160 16 -175 4 -175 -146 0 -85 4 -111 18 -133
30 -45 55 -52 133 -32 38 9 92 21 119 27 28 5 84 19 125 30 41 12 104 26 140
33 36 7 86 18 111 25 65 19 97 8 105 -35 9 -50 -1 -88 -31 -121 -22 -24 -39
-30 -108 -39 -174 -25 -244 -37 -302 -51 -33 -8 -94 -20 -135 -26 -41 -6 -88
-16 -105 -23 -64 -27 -155 -48 -275 -65 -97 -14 -194 -30 -213 -36 -9 -3 -23
-20 -31 -37 -7 -18 -25 -38 -39 -46 -25 -13 -33 -12 -110 23 -45 21 -103 47
-128 57 l-46 18 -26 -27 c-14 -15 -28 -41 -31 -58 -4 -17 -18 -42 -31 -54
l-24 -23 -48 21 c-57 25 -135 23 -180 -3 -30 -17 -30 -19 -25 -80 2 -34 0 -65
-5 -68 -10 -6 -98 42 -298 163 -284 173 -300 179 -328 136 -22 -33 -11 -61 58
-147 67 -83 104 -154 88 -170 -14 -14 -54 12 -143 96 -67 63 -168 147 -328
270 -89 69 -122 107 -122 140 0 14 5 15 33 8 89 -23 967 13 1187 48 124 20
342 87 465 144 28 12 80 37 118 54 37 17 75 31 85 31 10 0 28 7 41 17 13 9 65
37 115 63 50 26 127 67 171 92 44 25 109 59 145 75 105 48 389 242 500 342 52
46 48 45 83 29z m-3913 -491 c19 -11 49 -30 65 -42 27 -19 126 -69 346 -175
37 -17 81 -44 99 -58 l32 -27 -34 -50 c-18 -27 -48 -58 -67 -69 l-34 -19 -41
21 c-23 12 -86 56 -141 97 -54 42 -106 74 -115 73 -26 -5 -24 -73 4 -144 14
-35 26 -77 26 -92 0 -16 11 -61 25 -100 14 -39 25 -78 25 -86 0 -52 -71 8
-135 114 -21 36 -53 83 -70 105 -31 39 -95 141 -95 150 0 3 -20 30 -45 61 -55
66 -88 131 -80 151 4 13 16 15 60 10 53 -5 55 -5 70 25 8 17 15 41 15 53 0 41
23 42 90 2z m-3522 -1374 c17 -36 -6 -119 -31 -110 -26 8 -15 127 12 127 6 0
14 -8 19 -17z"/>
<path d="M7665 2635 c-5 -2 -32 -6 -58 -10 -43 -6 -56 -14 -107 -67 -42 -43
-64 -58 -77 -54 -10 2 -39 8 -65 12 -43 6 -51 3 -90 -27 -40 -32 -48 -34 -133
-38 -69 -2 -96 -8 -117 -23 -35 -24 -35 -36 0 -49 56 -22 325 -2 432 32 19 6
71 15 115 19 137 14 345 58 350 74 14 41 9 49 -60 92 -61 37 -77 43 -125 43
-30 0 -59 -2 -65 -4z"/>
</g>
</svg>
